<svg width="709" height="499" viewBox="0 0 709 499" fill="none" xmlns="http://www.w3.org/2000/svg">
<g clip-path="url(#clip0_3_2)">
<path d="M31.24 393.47C29.29 393.03 27.35 392.17 25.4 390.87C23.45 389.57 22.7 387.73 23.13 385.35C23.57 381.89 25.89 377.18 30.11 371.23C34.33 365.28 39.47 358.73 45.53 351.59C51.59 344.45 58.24 337.04 65.49 329.36C72.74 321.68 79.71 314.38 86.42 307.45C93.12 300.53 99.18 294.2 104.6 288.46C110.01 282.73 113.9 278.35 116.28 275.32C105.46 277.27 95.13 279.27 85.29 281.32C75.44 283.38 66.19 285.27 57.54 287C57.54 288.73 56.73 289.71 55.11 289.92C53.49 290.14 52.13 290.25 51.05 290.25C47.37 290.25 44.29 289.55 41.8 288.14C39.32 286.74 38.5 283.98 39.37 279.86C39.37 279.43 39.53 279 39.86 278.56C40.18 278.13 40.35 277.7 40.35 277.26C56.58 272.5 72.26 268.45 87.41 265.09C102.55 261.74 118.13 258.55 134.15 255.52C142.59 246.65 152.86 236.37 164.98 224.69C177.09 213.01 189.91 200.95 203.44 188.5C216.96 176.06 230.65 163.78 244.5 151.66C258.34 139.54 271.16 128.73 282.96 119.2C294.75 109.68 305.03 102 313.79 96.16C322.55 90.32 328.56 87.4 331.8 87.4C333.96 87.4 335.75 88.05 337.16 89.35C338.56 90.65 339.59 92.27 340.24 94.22C340.89 96.17 341.32 98.23 341.54 100.39C341.75 102.56 341.75 104.5 341.54 106.23C340.89 110.34 339.27 115.59 336.67 121.97C334.07 128.35 330.88 135.39 327.1 143.07C323.31 150.75 319.2 158.7 314.77 166.92C310.33 175.15 305.95 183.26 301.63 191.26C297.3 199.27 293.19 206.84 289.3 213.98C285.41 221.12 282.16 227.29 279.56 232.48C279.12 233.57 278.64 234.65 278.1 235.73C277.56 236.81 276.96 238 276.32 239.3H279.89C285.08 239.3 289.46 240.11 293.03 241.73C296.6 243.35 298.17 247.41 297.74 253.9L293.52 257.15C289.84 256.72 285.89 256.5 281.67 256.5H268.85C264.96 265.59 260.74 275.65 256.19 286.68C251.64 297.71 247.32 308.59 243.21 319.3C239.1 330.01 235.58 340.02 232.66 349.32C229.74 358.62 227.84 366.09 226.98 371.71V377.23C228.28 377.23 229.58 377.88 230.87 379.18C232.17 380.48 232.82 381.78 232.82 383.07C232.38 385.45 230.98 387.5 228.6 389.24C226.22 390.97 223.84 391.84 221.46 391.84C215.83 391.84 212.32 390.11 210.91 386.65C209.5 383.19 209.23 378.97 210.1 373.99C211.4 363.39 213.51 352.78 216.43 342.18C219.35 331.58 222.65 321.3 226.33 311.35C230.01 301.4 233.79 291.83 237.69 282.63C241.58 273.44 245.26 264.94 248.72 257.15C232.49 258.23 215.5 259.96 197.76 262.34C180.02 264.72 162.27 267.43 144.53 270.45C143.88 270.89 143.28 271.42 142.74 272.07C142.2 272.72 141.6 273.37 140.96 274.02C137.93 277.05 133.71 281.27 128.3 286.68C122.89 292.09 116.94 298.1 110.45 304.69C103.96 311.29 97.25 318.27 90.33 325.62C83.4 332.97 76.91 339.95 70.86 346.55C64.8 353.15 59.61 359.15 55.28 364.56C50.95 369.97 48.14 374.19 46.84 377.22C47.05 378.73 46.63 380.3 45.54 381.93C44.46 383.55 43.06 385.12 41.32 386.64C39.59 388.15 37.81 389.51 35.97 390.7C34.13 391.89 32.56 392.81 31.26 393.46L31.24 393.47ZM329.18 106.89C299.32 128.31 270.65 151.03 243.17 175.05C215.69 199.07 189.18 224.17 163.65 250.35C193.94 246.24 224.67 243 255.82 240.61C261.01 228.49 266.74 216.92 273.02 205.88C279.29 194.84 285.78 183.92 292.49 173.1C299.19 162.28 305.69 151.41 311.96 140.48C318.23 129.56 323.97 118.36 329.16 106.89H329.18Z" fill="white"/>
<path d="M334.09 386.33C321.11 386.33 310.72 382.27 302.93 374.16C295.14 366.05 291.57 355.17 292.22 341.54C292.65 332.88 294.98 322.55 299.2 310.54C303.42 298.53 309.04 285.71 316.08 272.08C323.11 258.45 331.33 244.28 340.75 229.56C350.16 214.85 360.27 200.51 371.1 186.56C381.92 172.6 393.28 159.41 405.18 146.96C417.08 134.52 429.03 123.59 441.04 114.18C453.05 104.77 464.84 97.3 476.42 91.79C487.99 86.27 498.98 83.51 509.36 83.51C515.85 83.51 520.66 85.62 523.8 89.84C526.93 94.06 528.29 99.2 527.86 105.26C527.86 107.21 526.94 110.4 525.1 114.84C523.26 119.28 520.93 124.31 518.12 129.93C515.31 135.56 512.17 141.4 508.71 147.46C505.25 153.52 501.84 159.14 498.49 164.34C495.13 169.53 492.11 174.08 489.4 177.97C486.69 181.86 484.69 184.46 483.4 185.76C481.67 184.9 479.61 183.44 477.23 181.38C474.85 179.33 473.66 177.22 473.66 175.05C473.66 174.84 474.74 173.05 476.91 169.7C479.07 166.35 481.78 162.13 485.02 157.04C488.27 151.96 491.78 146.49 495.57 140.65C499.35 134.81 502.92 129.18 506.28 123.77C509.63 118.36 512.39 113.6 514.56 109.49C516.72 105.38 517.91 102.67 518.13 101.38C517.26 100.95 516.61 100.68 516.18 100.57C515.74 100.46 515.1 100.41 514.23 100.41C508.6 100.41 502.81 101.44 496.87 103.49C490.92 105.55 485.08 108.25 479.34 111.6C473.6 114.96 468.03 118.58 462.63 122.47C457.22 126.36 452.3 130.21 447.86 133.99C443.42 137.78 439.63 141.19 436.5 144.21C433.36 147.24 431.15 149.4 429.85 150.7C420.98 159.57 411.89 169.42 402.59 180.23C393.28 191.05 384.25 202.36 375.49 214.15C366.73 225.95 358.4 238 350.5 250.34C342.6 262.67 335.57 274.74 329.4 286.53C323.23 298.32 318.31 309.63 314.63 320.45C310.95 331.27 308.79 341.11 308.14 349.98C307.7 357.98 309 363.72 312.03 367.18C315.06 370.64 321.33 372.37 330.85 372.37C341.02 372.37 351.13 370.64 361.2 367.18C371.26 363.72 381.27 359.39 391.22 354.2C401.17 349.01 411.02 343.27 420.75 337C430.49 330.72 440 324.88 449.31 319.47C450.17 319.69 451.26 320.07 452.56 320.61C453.86 321.15 455.16 321.8 456.45 322.56C457.75 323.32 458.88 324.18 459.86 325.16C460.84 326.14 461.32 327.27 461.32 328.57C461.32 329.87 460.45 331.06 458.72 332.14C456.99 333.22 455.69 333.98 454.83 334.41C447.47 340.25 438.6 346.26 428.22 352.42C417.83 358.59 407.07 364.15 395.93 369.13C384.78 374.11 373.75 378.22 362.83 381.46C351.9 384.71 342.33 386.33 334.11 386.33H334.09Z" fill="white"/>
<path d="M477.87 316.87C477.87 312.98 478.57 308.59 479.98 303.73C481.38 298.86 483.17 293.99 485.33 289.12C487.49 284.25 489.98 279.6 492.79 275.16C495.6 270.73 498.41 266.78 501.23 263.31C504.69 253.14 510.85 245.08 519.73 239.13C528.6 233.18 538.23 230.21 548.61 230.21C555.53 230.21 561.05 231.46 565.16 233.94C569.27 236.43 572.51 239.46 574.9 243.03C577.28 246.6 578.85 250.44 579.61 254.55C580.37 258.66 580.75 262.45 580.75 265.91C580.75 273.7 579.23 281.49 576.21 289.28C583.35 286.9 590.38 284.25 597.31 281.33C604.23 278.41 610.72 275.54 616.78 272.73C622.83 269.92 628.19 267.27 632.85 264.78C637.5 262.29 641.23 260.29 644.05 258.78C644.48 258.57 645.02 258.46 645.67 258.46C646.75 258.46 647.83 258.9 648.92 259.76C650 260.63 650.92 261.6 651.68 262.68C652.44 263.77 652.87 264.85 652.98 265.93C653.09 267.01 652.82 267.88 652.17 268.53C649.14 271.56 644.59 274.86 638.54 278.43C632.48 282 625.61 285.52 617.93 288.98C610.25 292.44 602.03 295.69 593.26 298.72C584.5 301.75 575.78 304.24 567.13 306.18C559.55 317 550.2 325.87 539.06 332.79C527.91 339.71 516.83 343.18 505.79 343.18C495.83 343.18 488.7 340.47 484.37 335.07C480.04 329.66 477.88 323.6 477.88 316.9L477.87 316.87ZM501.56 291.88C498.75 296.21 496.37 300.59 494.42 305.02C492.47 309.46 491.5 313.95 491.5 318.49C491.5 321.95 492.31 324.49 493.93 326.12C495.55 327.74 498.74 328.55 503.5 328.55C510.85 328.55 518.05 326.76 525.08 323.2C532.11 319.63 538.55 315.03 544.39 309.41C543.3 309.63 542.17 309.73 540.98 309.73H537.57C534.75 309.73 531.62 309.57 528.16 309.24C524.7 308.91 521.29 308.1 517.94 306.81C514.58 305.51 511.45 303.68 508.53 301.29C505.61 298.91 503.28 295.77 501.55 291.88H501.56ZM522.33 263.64C522.33 264.94 521.41 266.84 519.57 269.32C517.73 271.81 515.4 274.79 512.59 278.25C512.59 283.88 514.16 288.37 517.3 291.72C520.43 295.08 526.76 296.75 536.29 296.75C539.54 296.75 542.94 296.54 546.51 296.1C550.08 295.67 553.7 295.13 557.38 294.48C561.06 288.86 563.98 283.28 566.14 277.77C568.3 272.25 569.39 267.01 569.39 262.03C569.39 257.05 567.98 252.67 565.17 248.89C562.36 245.11 557.27 243.21 549.92 243.21C544.94 243.21 539.64 244.35 534.02 246.62C528.39 248.89 523.74 252.3 520.06 256.84C521.57 259.44 522.33 261.71 522.33 263.66V263.64Z" fill="white"/>
<path d="M655.72 339.92C652.04 339.92 649.07 338.3 646.79 335.05C644.52 331.8 643.38 328.56 643.38 325.31C643.38 323.58 643.97 321.36 645.16 318.66C646.35 315.96 647.92 314.6 649.87 314.6C653.55 314.6 657.17 315.69 660.74 317.85C664.31 320.02 666.1 323.26 666.1 327.59C666.1 330.62 665.07 333.43 663.02 336.03C660.96 338.63 658.53 339.92 655.72 339.92Z" fill="white"/>
<path d="M2145.12 -500.63H-95.42V641.61H2145.12V-500.63Z" stroke="#27AAE1" stroke-width="5" stroke-miterlimit="10"/>
</g>
<defs>
<clipPath id="clip0_3_2">
<rect width="708.66" height="498.9" fill="white"/>
</clipPath>
</defs>
</svg>
