<?xml version="1.0" encoding="UTF-8"?>
<svg id="Layer_1" data-name="Layer 1" xmlns="http://www.w3.org/2000/svg" viewBox="0 0 708.66 498.9">
  <defs>
    <style>
      .cls-1 {
        fill: none;
        stroke: #27aae1;
        stroke-miterlimit: 10;
        stroke-width: 5px;
      }

      .cls-2 {
        fill: #231f20;
        stroke-width: 0px;
      }
    </style>
  </defs>
  <g>
    <path class="cls-2" d="m31.24,393.47c-1.95-.44-3.89-1.3-5.84-2.6-1.95-1.3-2.7-3.14-2.27-5.52.44-3.46,2.76-8.17,6.98-14.12,4.22-5.95,9.36-12.5,15.42-19.64,6.06-7.14,12.71-14.55,19.96-22.23,7.25-7.68,14.22-14.98,20.93-21.91,6.7-6.92,12.76-13.25,18.18-18.99,5.41-5.73,9.3-10.11,11.68-13.14-10.82,1.95-21.15,3.95-30.99,6-9.85,2.06-19.1,3.95-27.75,5.68,0,1.73-.81,2.71-2.43,2.92-1.62.22-2.98.33-4.06.33-3.68,0-6.76-.7-9.25-2.11-2.48-1.4-3.3-4.16-2.43-8.28,0-.43.16-.86.49-1.3.32-.43.49-.86.49-1.3,16.23-4.76,31.91-8.81,47.06-12.17,15.14-3.35,30.72-6.54,46.74-9.57,8.44-8.87,18.71-19.15,30.83-30.83,12.11-11.68,24.93-23.74,38.46-36.19,13.52-12.44,27.21-24.72,41.06-36.84,13.84-12.12,26.66-22.93,38.46-32.46,11.79-9.52,22.07-17.2,30.83-23.04,8.76-5.84,14.77-8.76,18.01-8.76,2.16,0,3.95.65,5.36,1.95,1.4,1.3,2.43,2.92,3.08,4.87.65,1.95,1.08,4.01,1.3,6.17.21,2.17.21,4.11,0,5.84-.65,4.11-2.27,9.36-4.87,15.74-2.6,6.38-5.79,13.42-9.57,21.1-3.79,7.68-7.9,15.63-12.33,23.85-4.44,8.23-8.82,16.34-13.14,24.34-4.33,8.01-8.44,15.58-12.33,22.72-3.89,7.14-7.14,13.31-9.74,18.5-.44,1.09-.92,2.17-1.46,3.25-.54,1.08-1.14,2.27-1.78,3.57h3.57c5.19,0,9.57.81,13.14,2.43,3.57,1.62,5.14,5.68,4.71,12.17l-4.22,3.25c-3.68-.43-7.63-.65-11.85-.65h-12.82c-3.89,9.09-8.11,19.15-12.66,30.18s-8.87,21.91-12.98,32.62c-4.11,10.71-7.63,20.72-10.55,30.02-2.92,9.3-4.82,16.77-5.68,22.39v5.52c1.3,0,2.6.65,3.89,1.95,1.3,1.3,1.95,2.6,1.95,3.89-.44,2.38-1.84,4.43-4.22,6.17-2.38,1.73-4.76,2.6-7.14,2.6-5.63,0-9.14-1.73-10.55-5.19-1.41-3.46-1.68-7.68-.81-12.66,1.3-10.6,3.41-21.21,6.33-31.81,2.92-10.6,6.22-20.88,9.9-30.83,3.68-9.95,7.46-19.52,11.36-28.72,3.89-9.19,7.57-17.69,11.03-25.48-16.23,1.08-33.22,2.81-50.96,5.19-17.74,2.38-35.49,5.09-53.23,8.11-.65.44-1.25.97-1.79,1.62-.54.65-1.14,1.3-1.78,1.95-3.03,3.03-7.25,7.25-12.66,12.66-5.41,5.41-11.36,11.42-17.85,18.01-6.49,6.6-13.2,13.58-20.12,20.93-6.93,7.35-13.42,14.33-19.47,20.93-6.06,6.6-11.25,12.6-15.58,18.01-4.33,5.41-7.14,9.63-8.44,12.66.21,1.51-.21,3.08-1.3,4.71-1.08,1.62-2.48,3.19-4.22,4.71-1.73,1.51-3.51,2.87-5.35,4.06-1.84,1.19-3.41,2.11-4.71,2.76ZM329.18,106.89c-29.86,21.42-58.53,44.14-86.01,68.16-27.48,24.02-53.99,49.12-79.52,75.3,30.29-4.11,61.02-7.35,92.17-9.74,5.19-12.12,10.92-23.69,17.2-34.73,6.27-11.04,12.76-21.96,19.47-32.78,6.7-10.82,13.2-21.69,19.47-32.62,6.27-10.92,12.01-22.12,17.2-33.59Z"/>
    <g>
      <path class="cls-2" d="m334.09,386.33c-12.98,0-23.37-4.06-31.16-12.17-7.79-8.11-11.36-18.99-10.71-32.62.43-8.66,2.76-18.99,6.98-31s9.84-24.83,16.88-38.46c7.03-13.63,15.25-27.8,24.67-42.52,9.41-14.71,19.52-29.05,30.35-43,10.82-13.96,22.18-27.15,34.08-39.6,11.9-12.44,23.85-23.37,35.86-32.78,12.01-9.41,23.8-16.88,35.38-22.39,11.57-5.52,22.56-8.28,32.94-8.28,6.49,0,11.3,2.11,14.44,6.33,3.13,4.22,4.49,9.36,4.06,15.42,0,1.95-.92,5.14-2.76,9.58-1.84,4.44-4.17,9.47-6.98,15.09-2.81,5.63-5.95,11.47-9.41,17.53-3.46,6.06-6.87,11.68-10.22,16.88-3.36,5.19-6.38,9.74-9.09,13.63-2.71,3.89-4.71,6.49-6,7.79-1.73-.86-3.79-2.32-6.17-4.38-2.38-2.05-3.57-4.16-3.57-6.33,0-.21,1.08-2,3.25-5.35,2.16-3.35,4.87-7.57,8.11-12.66,3.25-5.08,6.76-10.55,10.55-16.39,3.78-5.84,7.35-11.47,10.71-16.88,3.35-5.41,6.11-10.17,8.28-14.28,2.16-4.11,3.35-6.82,3.57-8.11-.87-.43-1.52-.7-1.95-.81-.44-.11-1.08-.16-1.95-.16-5.63,0-11.42,1.03-17.36,3.08-5.95,2.06-11.79,4.76-17.53,8.11-5.74,3.36-11.31,6.98-16.71,10.87-5.41,3.89-10.33,7.74-14.77,11.52-4.44,3.79-8.23,7.2-11.36,10.22-3.14,3.03-5.35,5.19-6.65,6.49-8.87,8.87-17.96,18.72-27.26,29.53-9.31,10.82-18.34,22.13-27.1,33.92-8.76,11.8-17.09,23.85-24.99,36.19-7.9,12.33-14.93,24.4-21.1,36.19-6.17,11.79-11.09,23.1-14.77,33.92-3.68,10.82-5.84,20.66-6.49,29.53-.44,8,.86,13.74,3.89,17.2,3.03,3.46,9.3,5.19,18.82,5.19,10.17,0,20.28-1.73,30.35-5.19,10.06-3.46,20.07-7.79,30.02-12.98,9.95-5.19,19.8-10.93,29.53-17.2,9.74-6.28,19.25-12.12,28.56-17.53.86.22,1.95.6,3.25,1.14,1.3.54,2.6,1.19,3.89,1.95,1.3.76,2.43,1.62,3.41,2.6s1.46,2.11,1.46,3.41-.87,2.49-2.6,3.57c-1.73,1.08-3.03,1.84-3.89,2.27-7.36,5.84-16.23,11.85-26.61,18.01-10.39,6.17-21.15,11.73-32.29,16.71-11.15,4.98-22.18,9.09-33.1,12.33-10.93,3.25-20.5,4.87-28.72,4.87Z"/>
      <path class="cls-2" d="m477.87,316.87c0-3.89.7-8.28,2.11-13.14,1.4-4.87,3.19-9.74,5.35-14.61,2.16-4.87,4.65-9.52,7.46-13.96,2.81-4.43,5.62-8.38,8.44-11.85,3.46-10.17,9.62-18.23,18.5-24.18,8.87-5.95,18.5-8.92,28.88-8.92,6.92,0,12.44,1.25,16.55,3.73,4.11,2.49,7.35,5.52,9.74,9.09,2.38,3.57,3.95,7.41,4.71,11.52.76,4.11,1.14,7.9,1.14,11.36,0,7.79-1.52,15.58-4.54,23.37,7.14-2.38,14.17-5.03,21.1-7.95,6.92-2.92,13.41-5.79,19.47-8.6,6.05-2.81,11.41-5.46,16.07-7.95,4.65-2.49,8.38-4.49,11.2-6,.43-.21.97-.32,1.62-.32,1.08,0,2.16.44,3.25,1.3,1.08.87,2,1.84,2.76,2.92.76,1.09,1.19,2.17,1.3,3.25.11,1.08-.16,1.95-.81,2.6-3.03,3.03-7.58,6.33-13.63,9.9-6.06,3.57-12.93,7.09-20.61,10.55-7.68,3.46-15.9,6.71-24.67,9.74-8.76,3.03-17.48,5.52-26.13,7.46-7.58,10.82-16.93,19.69-28.07,26.61-11.15,6.92-22.23,10.39-33.27,10.39-9.96,0-17.09-2.71-21.42-8.11-4.33-5.41-6.49-11.47-6.49-18.17Zm23.69-24.99c-2.81,4.33-5.19,8.71-7.14,13.14-1.95,4.44-2.92,8.93-2.92,13.47,0,3.46.81,6,2.43,7.63,1.62,1.62,4.81,2.43,9.57,2.43,7.35,0,14.55-1.79,21.58-5.35,7.03-3.57,13.47-8.17,19.31-13.79-1.09.22-2.22.32-3.41.32h-3.41c-2.82,0-5.95-.16-9.41-.49-3.46-.33-6.87-1.14-10.22-2.43-3.36-1.3-6.49-3.13-9.41-5.52-2.92-2.38-5.25-5.52-6.98-9.41Zm20.77-28.24c0,1.3-.92,3.2-2.76,5.68-1.84,2.49-4.17,5.47-6.98,8.93,0,5.63,1.57,10.12,4.71,13.47,3.13,3.36,9.46,5.03,18.99,5.03,3.25,0,6.65-.21,10.22-.65,3.57-.43,7.19-.97,10.87-1.62,3.68-5.62,6.6-11.2,8.76-16.71,2.16-5.52,3.25-10.76,3.25-15.74s-1.41-9.36-4.22-13.14c-2.81-3.78-7.9-5.68-15.25-5.68-4.98,0-10.28,1.14-15.9,3.41-5.63,2.27-10.28,5.68-13.96,10.22,1.51,2.6,2.27,4.87,2.27,6.82Z"/>
      <path class="cls-2" d="m655.72,339.92c-3.68,0-6.65-1.62-8.93-4.87-2.27-3.25-3.41-6.49-3.41-9.74,0-1.73.59-3.95,1.78-6.65,1.19-2.7,2.76-4.06,4.71-4.06,3.68,0,7.3,1.09,10.87,3.25,3.57,2.17,5.36,5.41,5.36,9.74,0,3.03-1.03,5.84-3.08,8.44-2.06,2.6-4.49,3.89-7.3,3.89Z"/>
    </g>
  </g>
  <rect class="cls-1" x="-95.42" y="-500.63" width="2240.54" height="1142.24"/>
</svg>