<?xml version="1.0" encoding="UTF-8"?>
<svg id="Layer_1" data-name="Layer 1" xmlns="http://www.w3.org/2000/svg" viewBox="0 0 572.53 261.15">
  <defs>
    <style>
      .cls-1 {
        fill: #fff;
        stroke-width: 0px;
      }
    </style>
  </defs>
  <g>
    <g>
      <path class="cls-1" d="m24.87,195.95c-.85-.19-1.69-.56-2.54-1.13-.85-.56-1.17-1.36-.99-2.4.19-1.5,1.2-3.55,3.03-6.13,1.83-2.59,4.07-5.43,6.7-8.53,2.63-3.1,5.52-6.32,8.67-9.66,3.15-3.34,6.18-6.51,9.09-9.52,2.91-3.01,5.54-5.76,7.9-8.25,2.35-2.49,4.04-4.39,5.08-5.71-4.7.85-9.19,1.72-13.46,2.61-4.28.89-8.3,1.72-12.06,2.47,0,.75-.35,1.18-1.06,1.27-.71.09-1.29.14-1.76.14-1.6,0-2.94-.3-4.02-.92-1.08-.61-1.43-1.81-1.06-3.6,0-.19.07-.37.21-.56.14-.19.21-.37.21-.56,7.05-2.07,13.86-3.83,20.45-5.29,6.58-1.46,13.35-2.84,20.3-4.16,3.67-3.85,8.13-8.32,13.4-13.4,5.26-5.08,10.83-10.31,16.71-15.72,5.87-5.4,11.82-10.74,17.84-16,6.01-5.26,11.58-9.96,16.71-14.1,5.12-4.14,9.59-7.47,13.4-10.01s6.42-3.81,7.83-3.81c.94,0,1.71.28,2.33.85.61.56,1.06,1.27,1.34,2.12.28.85.47,1.74.56,2.68.09.94.09,1.79,0,2.54-.28,1.79-.99,4.07-2.12,6.84-1.13,2.77-2.52,5.83-4.16,9.17-1.65,3.34-3.43,6.79-5.36,10.36-1.93,3.57-3.83,7.1-5.71,10.57-1.88,3.48-3.67,6.77-5.36,9.87s-3.1,5.78-4.23,8.04c-.19.47-.4.94-.63,1.41-.24.47-.49.99-.78,1.55h1.55c2.26,0,4.16.35,5.71,1.06,1.55.71,2.23,2.47,2.04,5.29l-1.83,1.41c-1.6-.19-3.31-.28-5.15-.28h-5.57c-1.69,3.95-3.53,8.32-5.5,13.11-1.97,4.79-3.86,9.52-5.64,14.17-1.79,4.65-3.31,9-4.58,13.04-1.27,4.04-2.09,7.28-2.47,9.73v2.4c.56,0,1.13.28,1.69.85.56.56.85,1.13.85,1.69-.19,1.03-.8,1.93-1.83,2.68-1.04.75-2.07,1.13-3.1,1.13-2.45,0-3.97-.75-4.58-2.26-.61-1.5-.73-3.34-.35-5.5.56-4.61,1.48-9.21,2.75-13.82,1.27-4.61,2.7-9.07,4.3-13.4,1.6-4.32,3.24-8.48,4.94-12.48,1.69-3.99,3.29-7.68,4.79-11.07-7.05.47-14.43,1.22-22.14,2.26-7.71,1.04-15.42,2.21-23.12,3.53-.28.19-.54.42-.78.71-.24.28-.49.56-.78.85l-5.5,5.5c-2.35,2.35-4.93,4.96-7.75,7.83-2.82,2.87-5.73,5.9-8.74,9.09-3.01,3.19-5.83,6.23-8.46,9.09-2.63,2.87-4.89,5.47-6.77,7.83-1.88,2.35-3.1,4.18-3.67,5.5.09.66-.09,1.34-.56,2.04-.47.7-1.08,1.39-1.83,2.04-.75.66-1.53,1.24-2.33,1.76-.8.52-1.48.92-2.04,1.2Zm129.44-124.5c-12.97,9.31-25.43,19.18-37.37,29.61-11.94,10.43-23.45,21.34-34.54,32.71,13.16-1.78,26.51-3.19,40.04-4.23,2.26-5.26,4.75-10.29,7.47-15.09,2.72-4.79,5.54-9.54,8.46-14.24,2.91-4.7,5.73-9.42,8.46-14.17,2.72-4.75,5.22-9.61,7.47-14.59Z"/>
      <path class="cls-1" d="m147.25,158.58c0-3.95,1.17-8.08,3.53-12.41,2.35-4.32,5.31-8.29,8.88-11.91,3.57-3.62,7.52-6.58,11.84-8.88,4.32-2.3,8.46-3.45,12.41-3.45,2.82,0,4.77,1.01,5.85,3.03,1.08,2.02,1.62,4.16,1.62,6.42,0,2.63-1.22,5.24-3.67,7.83-2.45,2.59-5.41,4.86-8.88,6.84-3.48,1.97-7.1,3.57-10.86,4.79-3.76,1.22-6.96,1.83-9.59,1.83h-1.41c-.47,0-.89-.09-1.27-.28-.28.56-.56,1.25-.85,2.04-.28.8-.54,1.62-.78,2.47-.24.85-.42,1.65-.56,2.4-.14.75-.21,1.32-.21,1.69,0,3.1,1.64,4.65,4.93,4.65,2.73,0,5.99-.71,9.8-2.12s7.8-3.17,11.99-5.29c4.18-2.11,8.34-4.42,12.48-6.91,4.13-2.49,7.85-4.79,11.14-6.91,3.29-2.11,6.01-3.88,8.18-5.29,2.16-1.41,3.34-2.11,3.53-2.11,1.03,0,2.12.4,3.24,1.2,1.13.8,1.69,1.81,1.69,3.03,0,.66-1.15,1.88-3.45,3.67-2.3,1.79-5.29,3.81-8.95,6.06-3.67,2.26-7.73,4.61-12.2,7.05-4.47,2.45-8.91,4.68-13.32,6.7-4.42,2.02-8.53,3.69-12.34,5.01-3.81,1.32-6.84,1.97-9.09,1.97-1.5,0-3.08-.33-4.72-.99-1.65-.66-3.13-1.55-4.44-2.68-1.32-1.13-2.4-2.49-3.24-4.09-.85-1.6-1.27-3.38-1.27-5.36Zm11.99-12.41h.85c2.07,0,4.25-.45,6.56-1.34,2.3-.89,4.53-2,6.7-3.31,2.16-1.31,4.18-2.75,6.06-4.3,1.88-1.55,3.41-2.98,4.58-4.3,1.17-1.31,1.93-2.42,2.26-3.31.33-.89.02-1.34-.92-1.34-2.45,0-4.89.49-7.33,1.48-2.45.99-4.79,2.26-7.05,3.81-2.26,1.55-4.33,3.31-6.2,5.29-1.88,1.97-3.48,3.95-4.79,5.92l-.71,1.41Z"/>
      <path class="cls-1" d="m176.86,194.96c0-2.91,1.15-5.95,3.46-9.09,2.3-3.15,5.36-6.35,9.17-9.59,3.81-3.24,8.18-6.46,13.11-9.66,4.94-3.19,9.99-6.25,15.16-9.17-.56-1.13-1.18-2.26-1.83-3.38-.66-1.13-1.29-2.26-1.9-3.38-.61-1.13-1.13-2.3-1.55-3.52-.42-1.22-.63-2.49-.63-3.81,0-1.88.82-3.85,2.47-5.92,1.64-2.07,3.64-3.99,5.99-5.78,2.35-1.78,4.75-3.27,7.19-4.44,2.44-1.17,4.51-1.76,6.2-1.76,1.03,0,2.07.61,3.1,1.83,1.03,1.22,1.55,2.35,1.55,3.38,0,.56-.17,1.13-.49,1.69-.33.56-.75,1.13-1.27,1.69-.52.56-1.04,1.08-1.55,1.55-.52.47-.96.85-1.34,1.13-.38.38-.75.56-1.13.56-.66,0-1.15-.28-1.48-.85-.33-.56-.26-1.08.21-1.55l-.42-.99c-1.04.56-2.26,1.27-3.67,2.11-1.41.85-2.75,1.81-4.02,2.89-1.27,1.08-2.35,2.28-3.24,3.6-.89,1.32-1.34,2.68-1.34,4.09,0,1.04.38,2.28,1.13,3.74.75,1.46,1.6,3.03,2.54,4.72,3.57-1.97,7.1-3.88,10.58-5.71,3.48-1.83,6.74-3.5,9.8-5.01,3.05-1.5,5.85-2.89,8.39-4.16,2.54-1.27,4.65-2.33,6.35-3.17.56-.19.94-.28,1.13-.28.66,0,1.27.19,1.83.56.56.38,1.06.82,1.48,1.34.42.52.68,1.04.78,1.55.09.52,0,.87-.28,1.06-1.13,1.04-2.96,2.23-5.5,3.6-2.54,1.36-5.5,2.87-8.88,4.51-3.38,1.65-7.07,3.41-11.07,5.29-4,1.88-8.06,3.9-12.2,6.06.19.56.33,1.15.42,1.76.09.61.14,1.2.14,1.76,0,4.79-1.41,9.45-4.23,13.96-2.82,4.51-6.32,8.53-10.5,12.06-4.18,3.52-8.7,6.37-13.54,8.53-4.84,2.16-9.28,3.24-13.32,3.24-1.79,0-3.36-.71-4.72-2.12-1.36-1.41-2.04-3.06-2.04-4.94Zm6.35.28c2.73,0,6.16-.92,10.29-2.75,4.14-1.83,8.11-4.25,11.91-7.26,3.81-3.01,7.07-6.42,9.8-10.22,2.73-3.81,4.09-7.64,4.09-11.49-4.23,2.26-8.34,4.63-12.34,7.12-4,2.49-7.61,5.05-10.86,7.68-3.24,2.63-6.01,5.38-8.32,8.25-2.3,2.87-3.83,5.76-4.58,8.67Z"/>
      <path class="cls-1" d="m234.11,185.09c-.28-4.98.89-10.41,3.52-16.29,2.63-5.87,5.87-11.75,9.73-17.62,3.85-5.87,7.87-11.49,12.06-16.85,4.18-5.36,7.73-9.96,10.65-13.82l1.69-2.12h-17.48c-1.6,0-3.2.05-4.79.14-1.6.09-3.2.14-4.79.14-.47-.47-.94-1.06-1.41-1.76-.47-.71-.71-1.53-.71-2.47,0-1.13.37-2.07,1.13-2.82,2.16-.09,4.35-.14,6.56-.14h13.25c2.21,0,4.39-.05,6.56-.14,1.5-.19,2.96-.3,4.37-.35,1.41-.05,2.77-.12,4.09-.21,1.97-1.97,4.02-4.23,6.13-6.77,2.11-2.54,4.16-5.03,6.13-7.47,1.97-2.44,3.78-4.67,5.43-6.7,1.64-2.02,3.03-3.45,4.16-4.3h.71c.75,0,1.48.52,2.19,1.55.71,1.04,1.06,1.93,1.06,2.68.09.94-.42,2.3-1.55,4.09-1.13,1.79-2.49,3.69-4.09,5.71-1.6,2.02-3.27,4.02-5.01,5.99-1.74,1.97-3.27,3.62-4.58,4.94h1.97c1.5,0,3.05.07,4.65.21,1.6.14,3.05.42,4.37.85,1.31.42,2.4,1.04,3.24,1.83.85.8,1.27,1.86,1.27,3.17,0,.38-.05.89-.14,1.55-.09.66-.38.99-.85.99h-1.41c-.75-.47-2.11-.8-4.09-.99-1.97-.19-4.04-.28-6.2-.28-1.6,0-3.1.02-4.51.07-1.41.05-2.49.07-3.24.07h-1.41l-2.11,2.54c-1.79,1.79-4.02,4.3-6.7,7.54-2.68,3.24-5.5,6.86-8.46,10.86-2.96,4-5.9,8.23-8.81,12.69-2.91,4.47-5.55,8.86-7.9,13.18-2.35,4.32-4.23,8.39-5.64,12.2-1.41,3.81-2.07,7.07-1.97,9.8,0,.56.19,1.22.56,1.97.37.75.28,1.41-.28,1.97-.28.28-.61.42-.99.42-1.6,0-3.05-.59-4.37-1.76-1.32-1.18-1.97-2.61-1.97-4.3Z"/>
      <path class="cls-1" d="m304.05,184.39c-1.79,0-3.48-.61-5.08-1.83-1.6-1.22-2.4-2.73-2.4-4.51,0-1.5.49-3.45,1.48-5.85.99-2.4,2.23-5.05,3.74-7.97,1.5-2.91,3.19-5.94,5.08-9.09,1.88-3.15,3.74-6.18,5.57-9.09,1.83-2.91,3.5-5.59,5-8.04,1.5-2.44,2.68-4.42,3.53-5.92-.56.38-1.6,1.18-3.1,2.4-1.5,1.22-3.29,2.73-5.36,4.51-2.07,1.79-4.35,3.71-6.84,5.78-2.49,2.07-4.96,4.18-7.4,6.35-5.83,4.98-12.27,10.53-19.32,16.64-1.22,0-2.35-.4-3.38-1.2-1.04-.8-1.55-1.81-1.55-3.03,0-.47.68-1.97,2.04-4.51,1.36-2.54,3.17-5.73,5.43-9.59,2.26-3.85,4.87-8.2,7.83-13.04,2.96-4.84,6.04-9.77,9.24-14.8,3.19-5.03,6.37-10.01,9.52-14.95,3.15-4.94,6.08-9.45,8.81-13.54,2.72-4.09,5.1-7.59,7.12-10.5,2.02-2.91,3.45-4.84,4.3-5.78,1.32.19,2.42.73,3.31,1.62.89.89,1.34,2,1.34,3.31,0,.38-1.04,2.23-3.1,5.57-2.07,3.34-4.68,7.45-7.83,12.34-3.15,4.89-6.58,10.15-10.29,15.79-3.71,5.64-7.24,10.98-10.58,16-3.34,5.03-6.2,9.4-8.6,13.11-2.4,3.71-3.88,6.04-4.44,6.98.66-.75,1.83-1.9,3.53-3.45s3.64-3.34,5.85-5.36c2.21-2.02,4.56-4.09,7.05-6.2,2.49-2.12,4.89-4.04,7.19-5.78,2.3-1.74,4.37-3.17,6.2-4.3s3.17-1.69,4.02-1.69c1.78,0,3.29.71,4.51,2.11,1.22,1.41,1.83,2.92,1.83,4.51s-.73,3.88-2.19,6.84c-1.46,2.96-3.27,6.18-5.43,9.66-2.16,3.48-4.44,7.03-6.84,10.65-2.4,3.62-4.51,6.89-6.34,9.8s-3.17,5.31-4.02,7.19c-.85,1.88-.8,2.82.14,2.82,1.13,0,2.7-.66,4.72-1.97,2.02-1.32,4.09-2.84,6.2-4.58,2.12-1.74,4.09-3.43,5.92-5.08,1.83-1.64,3.17-2.8,4.02-3.45,1.13-.94,2.49-2.26,4.09-3.95,1.6-1.69,3.29-3.5,5.08-5.43,1.79-1.93,3.6-3.9,5.43-5.92,1.83-2.02,3.5-3.83,5.01-5.43,1.5-1.6,2.8-2.91,3.88-3.95,1.08-1.03,1.71-1.55,1.9-1.55,1.41,0,2.51.45,3.31,1.34.8.89,1.2,1.86,1.2,2.89-.38.94-1.65,2.66-3.81,5.15-2.16,2.49-4.82,5.34-7.97,8.53-3.15,3.2-6.61,6.53-10.36,10.01-3.76,3.48-7.43,6.65-11,9.52-3.57,2.87-6.89,5.24-9.94,7.12-3.06,1.88-5.48,2.82-7.26,2.82Z"/>
    </g>
    <g>
      <path class="cls-1" d="m378.49,192.84c-5.64,0-10.15-1.76-13.54-5.29s-4.94-8.25-4.65-14.17c.19-3.76,1.2-8.25,3.03-13.46s4.28-10.79,7.33-16.71c3.05-5.92,6.63-12.08,10.72-18.47,4.09-6.39,8.48-12.62,13.18-18.68,4.7-6.06,9.63-11.8,14.81-17.2,5.17-5.4,10.36-10.15,15.58-14.24s10.34-7.33,15.37-9.73c5.03-2.4,9.8-3.6,14.31-3.6,2.82,0,4.91.92,6.27,2.75,1.36,1.83,1.95,4.07,1.76,6.7,0,.85-.4,2.23-1.2,4.16-.8,1.93-1.81,4.11-3.03,6.56-1.22,2.45-2.59,4.98-4.09,7.61-1.5,2.63-2.99,5.08-4.44,7.33-1.46,2.26-2.77,4.23-3.95,5.92-1.18,1.69-2.04,2.82-2.61,3.38-.75-.37-1.65-1.01-2.68-1.9-1.04-.89-1.55-1.81-1.55-2.75,0-.09.47-.87,1.41-2.33.94-1.46,2.11-3.29,3.52-5.5,1.41-2.21,2.94-4.58,4.58-7.12,1.64-2.54,3.19-4.98,4.65-7.33,1.46-2.35,2.66-4.42,3.6-6.2.94-1.78,1.46-2.96,1.55-3.53-.38-.19-.66-.3-.85-.35-.19-.05-.47-.07-.85-.07-2.45,0-4.96.45-7.54,1.34-2.59.89-5.12,2.07-7.61,3.53-2.49,1.46-4.91,3.03-7.26,4.72-2.35,1.69-4.49,3.36-6.42,5.01-1.93,1.65-3.57,3.13-4.93,4.44-1.36,1.32-2.33,2.26-2.89,2.82-3.86,3.86-7.8,8.13-11.84,12.83-4.04,4.7-7.97,9.61-11.77,14.73-3.81,5.12-7.43,10.36-10.86,15.72-3.43,5.36-6.49,10.6-9.17,15.72-2.68,5.12-4.82,10.04-6.42,14.73-1.6,4.7-2.54,8.98-2.82,12.83-.19,3.48.37,5.97,1.69,7.47,1.31,1.5,4.04,2.26,8.18,2.26,4.42,0,8.81-.75,13.18-2.26,4.37-1.5,8.72-3.38,13.04-5.64,4.32-2.26,8.6-4.75,12.83-7.47,4.23-2.73,8.37-5.26,12.41-7.61.38.09.85.26,1.41.49.56.24,1.13.52,1.69.85.56.33,1.06.71,1.48,1.13.42.42.63.92.63,1.48s-.38,1.08-1.13,1.55c-.75.47-1.32.8-1.69.99-3.2,2.54-7.05,5.15-11.56,7.83-4.51,2.68-9.19,5.1-14.03,7.26-4.84,2.16-9.64,3.95-14.38,5.36-4.75,1.41-8.91,2.11-12.48,2.11Z"/>
      <path class="cls-1" d="m440.96,162.67c0-1.69.3-3.6.92-5.71.61-2.12,1.39-4.23,2.33-6.35.94-2.11,2.02-4.13,3.24-6.06,1.22-1.93,2.44-3.64,3.67-5.15,1.5-4.42,4.18-7.92,8.04-10.5,3.85-2.58,8.04-3.88,12.55-3.88,3.01,0,5.4.54,7.19,1.62,1.79,1.08,3.19,2.4,4.23,3.95,1.03,1.55,1.71,3.22,2.04,5.01.33,1.79.49,3.43.49,4.93,0,3.38-.66,6.77-1.97,10.15,3.1-1.03,6.16-2.19,9.17-3.46,3.01-1.27,5.83-2.51,8.46-3.74,2.63-1.22,4.96-2.37,6.98-3.45,2.02-1.08,3.64-1.95,4.87-2.61.19-.09.42-.14.7-.14.47,0,.94.19,1.41.56.47.38.87.8,1.2,1.27.33.47.51.94.56,1.41.05.47-.07.85-.35,1.13-1.32,1.32-3.29,2.75-5.92,4.3-2.63,1.55-5.62,3.08-8.95,4.58-3.34,1.5-6.91,2.92-10.72,4.23-3.81,1.32-7.59,2.4-11.35,3.24-3.29,4.7-7.36,8.55-12.2,11.56-4.84,3.01-9.66,4.51-14.45,4.51-4.33,0-7.43-1.18-9.31-3.52-1.88-2.35-2.82-4.98-2.82-7.9Zm10.29-10.86c-1.22,1.88-2.26,3.78-3.1,5.71-.85,1.93-1.27,3.88-1.27,5.85,0,1.5.35,2.61,1.06,3.31s2.09,1.06,4.16,1.06c3.19,0,6.32-.78,9.38-2.33,3.05-1.55,5.85-3.55,8.39-5.99-.47.09-.96.14-1.48.14h-1.48c-1.22,0-2.59-.07-4.09-.21-1.5-.14-2.98-.49-4.44-1.06-1.46-.56-2.82-1.36-4.09-2.4-1.27-1.03-2.28-2.4-3.03-4.09Zm9.02-12.27c0,.56-.4,1.39-1.2,2.47-.8,1.08-1.81,2.38-3.03,3.88,0,2.45.68,4.39,2.04,5.85,1.36,1.46,4.11,2.19,8.25,2.19,1.41,0,2.89-.09,4.44-.28,1.55-.19,3.12-.42,4.72-.71,1.6-2.44,2.87-4.86,3.81-7.26.94-2.4,1.41-4.67,1.41-6.84s-.61-4.06-1.83-5.71c-1.22-1.64-3.43-2.47-6.63-2.47-2.16,0-4.47.49-6.91,1.48-2.45.99-4.47,2.47-6.06,4.44.66,1.13.99,2.12.99,2.96Z"/>
      <path class="cls-1" d="m518.23,172.68c-1.6,0-2.89-.71-3.88-2.12-.99-1.41-1.48-2.82-1.48-4.23,0-.75.26-1.71.78-2.89.52-1.17,1.2-1.76,2.04-1.76,1.6,0,3.17.47,4.72,1.41,1.55.94,2.33,2.35,2.33,4.23,0,1.32-.45,2.54-1.34,3.67-.89,1.13-1.95,1.69-3.17,1.69Z"/>
    </g>
  </g>
  <g>
    <path class="cls-1" d="m469.29,35.79c-.28.55-.6,1.16-.95,1.83-.05.09-.14.14-.25.14l-10.93.55c-.07,0-.11-.04-.12-.13l-.02-.47c0-.08.02-.12.08-.13l1.72-.09c.1,0,.15-.02.18-.06.02-.03.03-.09.03-.17,0-.07-.07-1.17-.19-3.32-.12-2.15-.19-3.25-.19-3.32s-.04-.8-.12-2.18c-.08-1.38-.12-2.11-.12-2.2-.07-1.49-.26-2.23-.56-2.21l-1.4.07c-.07,0-.11-.03-.12-.1l-.03-.51s0-.07.02-.08c.01-.02.05-.03.11-.03l10.35-.52c.14,0,.33-.02.58-.05.25-.03.37-.04.36-.04.09,0,.13.03.12.11-.11.49-.25,1.05-.41,1.68-.06.17-.13.25-.21.25,0,0-.07-.06-.22-.19-.33-.29-.79-.46-1.38-.54-1.53-.19-3.13-.26-4.8-.19-.12,0-.17.05-.17.14.1,2.53.17,4.33.22,5.42,0,.15.07.22.19.21l4.88-.24c.09,0,.14-.07.17-.18.03-.39.07-.82.11-1.3,0-.14.04-.21.13-.22l.45-.02c.1,0,.16.05.16.18,0,.03,0,.34,0,.92,0,.59,0,.93,0,1.04,0,.11.03.5.08,1.16.05.66.07,1.01.08,1.06,0,.16-.04.25-.13.25l-.47.02c-.09,0-.13-.04-.14-.15-.01-.3-.09-.86-.22-1.67-.02-.15-.1-.22-.22-.21-.06,0-.88.03-2.45.08s-2.38.08-2.42.08c-.09,0-.13.07-.12.21l.21,4.22c.09,1.69.32,2.52.71,2.5,3.13-.16,5.39-.65,6.78-1.47.33-.19.5-.29.5-.29.02,0,.05.02.09.06.04.04.05.08.03.11Z"/>
    <path class="cls-1" d="m486.06,36.3c-.21,1.08-.83,1.95-1.85,2.59-.58.35-1.16.57-1.76.65-.63.07-1.45.01-2.46-.18-1.44-.27-2.73-.87-3.89-1.8-.1-.07-.12-.23-.08-.48,0-.05.09-.49.24-1.32.15-.83.23-1.28.25-1.34.02-.09.1-.12.25-.09l.44.08c.13.03.19.08.19.17-.05.27-.08.53-.08.79,0,.67.22,1.3.69,1.89.47.59,1.2.98,2.18,1.16,1.34.26,2.35,0,3.02-.77.29-.35.5-.84.62-1.48.11-.57,0-1.07-.33-1.49-.3-.52-1-1.07-2.08-1.65-1.2-.65-2.12-1.38-2.77-2.19-.65-.81-.84-1.87-.59-3.19.23-1.22.97-2.16,2.21-2.82.96-.5,2.12-.63,3.45-.37,1.47.28,2.57.83,3.28,1.64.1.12.14.22.14.33-.01.49-.11,1.24-.31,2.25-.03.15-.08.22-.14.21l-.53-.1c-.08-.01-.12-.07-.13-.16,0-.26-.03-.55-.07-.87-.05-.47-.25-.87-.58-1.22-.58-.58-1.4-.97-2.45-1.17-.8-.15-1.46-.06-1.98.28-.58.39-.94.97-1.06,1.75-.08.52.05,1.07.41,1.65.18.29.94.85,2.26,1.69.79.5,1.35.89,1.7,1.17.58.46,1.04.96,1.4,1.48.5.74.64,1.71.41,2.91Z"/>
    <path class="cls-1" d="m510.45,34.37c-.2.3-.57.78-1.12,1.45-.07.09-.18.1-.32.03-.15-.07-.23-.17-.23-.31,0-.35-.14-.64-.42-.86-.19-.16-.74-.5-1.64-1.02-.86-.49-1.44-.81-1.76-.96-.09-.04-.17-.02-.22.07-.88,1.69-2.34,4.75-4.39,9.17-.84,1.81-1.1,2.79-.79,2.94l1.6.74s.05.06.02.12l-.22.47c-.03.07-.07.09-.11.07l-5.78-2.68c-.07-.03-.08-.08-.05-.15l.21-.45c.03-.07.08-.09.15-.06l1.46.68c.12.06.21,0,.28-.14,0-.02.16-.36.45-1.03.29-.67.47-1.07.53-1.2.05-.11.6-1.25,1.63-3.39,1.04-2.15,1.58-3.27,1.62-3.36.89-1.91,1.22-2.92,1-3.02-1.54-.71-2.84-1.15-3.91-1.31-.25-.03-.53,0-.85.12-.31.12-.52.17-.61.15-.21-.07-.33-.15-.35-.26-.03-.08.04-.18.21-.3.45-.51.87-.96,1.26-1.36.07-.07.16-.07.27,0,.11.07.91.49,2.42,1.26,1.61.83,2.7,1.37,3.29,1.64,1.93.9,3.76,1.71,5.48,2.44.2.08.4.16.58.22.17.04.25.06.24.06.1.05.12.12.08.23Z"/>
    <path class="cls-1" d="m512.46,52.43c-.19.25-.45.39-.78.4-.33.02-.64-.08-.91-.28-.7-.52-.83-1.07-.39-1.66.51-.69,1.18-.73,2-.13.27.2.4.46.4.79,0,.31-.11.6-.32.88Z"/>
    <path class="cls-1" d="m537.2,83.1c-.08.04-.21.06-.39.07-.63.02-1.14.06-1.54.1-.09.01-.17-.04-.23-.16l-4.08-8.21c-.06-.12.01-.23.22-.33.12-.06.33-.01.61.15,2.21,1.3,4.14,2.12,5.78,2.47,1.21.25,2.25.32,3.11.2.72-.09,1.52-.36,2.4-.8.61-.3,1.1-.77,1.47-1.38.18-.32.29-.66.32-1.02.04-.52-.12-1.19-.49-2-.53-1.16-1.3-1.89-2.32-2.19-.18-.06-.29-.11-.31-.15-.08-.16-.08-.3,0-.42.02-.04.05-.06.08-.08.2-.1.56-.09,1.09.04.57.13,1.17.43,1.8.89.62.59,1.23,1.49,1.83,2.7.52,1.05.64,2.09.37,3.13-.25.95-.93,1.69-2.04,2.24-.69.34-1.5.54-2.43.58-1.54.07-3.1-.13-4.68-.6-1.18-.35-2.36-.8-3.53-1.35-.11-.05-.18-.07-.22-.05-.05.03-.03.14.07.33l1.05,2.1c.69,1.38,1.27,2.41,1.76,3.1.06.08.12.16.2.23.08.08.12.12.13.13.07.14.06.23-.02.27Z"/>
    <path class="cls-1" d="m547.38,98.61c-.97.23-1.71.36-2.21.39-.63.04-1.37-.02-2.22-.2-1.26-.26-2.26-.71-2.99-1.35-.56-.5-.95-1.18-1.15-2.03-.25-1.07-.16-2.11.29-3.1.32-.73.89-1.41,1.72-2.04.97-.74,2.23-1.29,3.77-1.65,2.28-.54,4.25-.54,5.93,0,.74.23,1.39.66,1.94,1.3.49.58.83,1.26,1.01,2.04.31,1.32-.03,2.64-1.03,3.96-.93,1.22-2.62,2.12-5.05,2.7Zm-1.58-1.97c1.61-.38,2.92-.87,3.94-1.46,1.07-.63,1.77-1.17,2.08-1.63.39-.57.48-1.32.28-2.23-.11-.48-.42-.82-.96-1.02-.6-.22-1.31-.3-2.13-.24-.75.06-1.51.17-2.27.36-1.59.38-2.96.88-4.11,1.5-1.59.87-2.47,1.58-2.62,2.13-.15.52-.17,1.06-.06,1.63.1.53.41.9.93,1.13.46.2,1.21.27,2.23.22.91-.05,1.8-.18,2.68-.39Z"/>
    <path class="cls-1" d="m542.85,117.65c-.09,0-.22-.04-.39-.11-.57-.26-1.05-.45-1.42-.59-.09-.03-.13-.11-.13-.24v-9.17c-.01-.13.1-.2.33-.2.14,0,.3.13.47.41,1.41,2.14,2.77,3.74,4.08,4.78.98.76,1.88,1.28,2.69,1.56.68.23,1.52.35,2.5.35.68,0,1.33-.2,1.93-.59.31-.21.55-.46.74-.77.27-.45.42-1.12.45-2.01.04-1.27-.33-2.27-1.11-3-.14-.13-.21-.22-.21-.28,0-.18.06-.31.19-.38.04-.02.07-.03.11-.03.22,0,.54.17.96.52.46.38.86.91,1.21,1.6.3.8.44,1.88.45,3.23,0,1.17-.35,2.16-1.05,2.97-.65.74-1.59,1.1-2.82,1.11-.77,0-1.58-.19-2.44-.56-1.41-.62-2.72-1.5-3.93-2.62-.91-.84-1.76-1.76-2.56-2.78-.07-.1-.13-.14-.18-.14-.06,0-.09.11-.09.33v2.35c0,1.54.07,2.73.21,3.56.02.1.04.19.08.3.04.1.05.16.06.17,0,.16-.04.23-.13.23Z"/>
    <path class="cls-1" d="m552.19,136.99c-.14-.03-.39-.19-.75-.48-.38-.31-.64-.58-.79-.8-.09-.14-.12-.28-.11-.41.03-.27.09-.58.16-.91.42-1.83,1.03-3.32,1.81-4.45.08-.1.07-.18-.01-.24-.68-.35-1.43-.74-2.25-1.17-.12-.07-.2-.08-.25-.06-.04.03-.05.11-.04.24.02.33-.07.9-.26,1.71-.21.93-.57,1.72-1.06,2.37-.44.59-.89,1.04-1.36,1.36-1.16.8-2.55,1.01-4.18.63-1.35-.31-2.42-1.1-3.21-2.38-.32-.53-.56-1.18-.75-1.96-.21-.9-.16-1.99.13-3.26.31-1.33.81-2.33,1.5-2.99.16-.14.28-.21.35-.19.06.01.15.09.29.23.13.14.19.24.18.28,0,.04-.09.15-.24.35-.56.74-.94,1.51-1.13,2.33-.29,1.25-.13,2.4.48,3.45.25.43.6.79,1.04,1.08.55.37,1.11.62,1.66.75,1.14.26,2.21,0,3.23-.79.38-.29.69-.65.94-1.06.39-.64.65-1.26.79-1.85.02-.07.06-.31.14-.72s.13-.65.14-.7c.06-.25.23-.34.51-.28.05.01.84.37,2.38,1.08,1.53.71,2.34,1.09,2.44,1.15.16.08.21.25.15.5-.28.93-.55,1.87-.82,2.8-.54,1.86-.83,2.93-.9,3.2-.07.31-.09.57-.07.77.03.21.04.32.04.33-.02.1-.08.14-.19.12Z"/>
  </g>
  <g>
    <path class="cls-1" d="m120.83,234.03h6.3l.18.81-.18.82h-6.3l-.18-.82.18-.81Z"/>
    <path class="cls-1" d="m155.1,233.2c1.25.94,1.97,2.21,1.89,4.03-.13,3.16-2.19,5.03-5.55,5.03-1.88,0-3.65-.56-4.41-1.47-.35-1.02-.05-3.06.5-4.12h.18c-.17,2.53,1.44,4.62,3.96,4.57,1.83-.04,2.9-1.21,2.9-2.73,0-.98-.55-1.64-1.68-2.51l-3.66-2.81c-1.44-1.11-2.16-2.59-2.01-4.36.18-2.51,1.77-4.25,4.42-4.25.68,0,1.9.11,2.86.25h1.32l-.27,3.57h-.2c0-1.69-1.18-2.79-2.96-2.79-1.65,0-2.7,1.03-2.75,2.33-.05.96.58,1.6,1.46,2.26l4,3.01Z"/>
    <path class="cls-1" d="m177.97,228.69h-.21v-.29c0-1.48-.81-2.44-2.1-2.48h-2.82v14.25c.02.84.62,1.51,1.34,1.51h.27v.24s-6.38,0-6.38,0v-.24h.27c.72,0,1.31-.66,1.34-1.49v-14.27h-2.82c-1.29.04-2.1,1-2.1,2.48v.29h-.21s0-4.23,0-4.23c.39.19,1.59.43,2.49.44h8.45c.9-.01,2.1-.25,2.49-.44v4.23Z"/>
    <path class="cls-1" d="m200.59,224.92v.24h-.29c-.88,0-1.68.67-2.11,1.42l-4.13,7.61v5.95c.01.85.61,1.53,1.34,1.53h.27v.24s-6.38,0-6.38,0v-.24h.27c.73,0,1.32-.67,1.34-1.51v-5.98l-4-7.62c-.41-.74-1.23-1.39-2.08-1.39h-.29v-.24h6.95v.24h-.26c-.61,0-1.04.81-.74,1.5l2.99,6.31,3.12-6.31c.33-.69-.17-1.5-.74-1.5h-.26v-.24h5Z"/>
    <path class="cls-1" d="m217.97,241.92h-10.87v-.24h.27c.74,0,1.33-.68,1.34-1.53v-13.46c-.01-.85-.61-1.53-1.34-1.53h-.27v-.24s6.38,0,6.38,0v.24h-.27c-.74,0-1.33.68-1.35,1.53v14.19h2.76c2.1,0,3.46-1.51,4.11-3.92h.21l-.97,4.95Z"/>
    <path class="cls-1" d="m237.08,241.92h-10.87v-.24h.27c.73,0,1.33-.68,1.34-1.53v-13.54c-.05-.81-.63-1.45-1.34-1.45h-.27v-.24s8.05,0,8.05,0c.91,0,2.12-.25,2.51-.44v4.24h-.21v-.29c0-1.46-.79-2.42-2.05-2.48h-3.53v7.06h2.78c1.03-.02,1.78-.9,1.78-2.08v-.21h.21s0,5.61,0,5.61h-.21v-.21c0-1.17-.74-2.04-1.75-2.08h-2.81v6.83h2.76c2.1,0,3.46-1.51,4.11-3.92h.21l-.97,4.95Z"/>
    <path class="cls-1" d="m263.68,241.92h-6.38v-.24h.27c.73,0,1.33-.68,1.34-1.53v-13.47c-.02-.84-.61-1.52-1.34-1.52h-.27v-.24s6.38,0,6.38,0v.24h-.27c-.73,0-1.32.67-1.34,1.51v13.47c.01.85.61,1.53,1.34,1.53h.27v.24Z"/>
    <path class="cls-1" d="m288.38,224.92v.24h-.39c-.7,0-1.27.65-1.3,1.45v12.54c0,1.83.24,3.1.24,3.1h-.19l-10.61-11.68v9.63c.02.81.59,1.46,1.3,1.46h.39v.24s-6.36,0-6.36,0v-.24h.39c.71,0,1.28-.66,1.3-1.47v-12.61c0-1.8-.24-3.03-.24-3.03h.21l10.59,11.68v-9.6c-.01-.81-.59-1.47-1.3-1.47h-.39v-.24s6.36,0,6.36,0Z"/>
    <path class="cls-1" d="m318.6,241.92h-10.87v-.24h.27c.73,0,1.33-.68,1.34-1.53v-13.54c-.05-.81-.63-1.45-1.34-1.45h-.27v-.24s8.05,0,8.05,0c.91,0,2.12-.25,2.51-.44v4.24h-.21v-.29c0-1.46-.79-2.42-2.05-2.48h-3.53v7.06h2.78c1.03-.02,1.78-.9,1.78-2.08v-.21h.21s0,5.61,0,5.61h-.21v-.21c0-1.17-.74-2.04-1.75-2.08h-2.81v6.83h2.76c2.1,0,3.46-1.51,4.11-3.92h.21l-.97,4.95Z"/>
    <path class="cls-1" d="m335.68,233.2c1.25.94,1.97,2.21,1.89,4.03-.13,3.16-2.19,5.03-5.55,5.03-1.88,0-3.65-.56-4.41-1.47-.35-1.02-.05-3.06.5-4.12h.18c-.17,2.53,1.44,4.62,3.96,4.57,1.83-.04,2.9-1.21,2.9-2.73,0-.98-.55-1.64-1.68-2.51l-3.66-2.81c-1.44-1.11-2.16-2.59-2.01-4.36.18-2.51,1.77-4.25,4.42-4.25.68,0,1.9.11,2.86.25h1.32l-.27,3.57h-.2c0-1.69-1.18-2.79-2.96-2.79-1.65,0-2.7,1.03-2.75,2.33-.05.96.58,1.6,1.46,2.26l4,3.01Z"/>
    <path class="cls-1" d="m354.11,233.2c1.25.94,1.97,2.21,1.89,4.03-.13,3.16-2.19,5.03-5.55,5.03-1.88,0-3.65-.56-4.41-1.47-.35-1.02-.05-3.06.5-4.12h.18c-.17,2.53,1.44,4.62,3.96,4.57,1.83-.04,2.9-1.21,2.9-2.73,0-.98-.55-1.64-1.68-2.51l-3.66-2.81c-1.44-1.11-2.16-2.59-2.01-4.36.18-2.51,1.77-4.25,4.42-4.25.68,0,1.9.11,2.86.25h1.32l-.27,3.57h-.2c0-1.69-1.18-2.79-2.96-2.79-1.65,0-2.7,1.03-2.75,2.33-.05.96.58,1.6,1.46,2.26l4,3.01Z"/>
    <path class="cls-1" d="m374.9,241.92h-10.87v-.24h.27c.73,0,1.33-.68,1.34-1.53v-13.54c-.05-.81-.63-1.45-1.34-1.45h-.27v-.24s8.05,0,8.05,0c.91,0,2.12-.25,2.51-.44v4.24h-.21v-.29c0-1.46-.79-2.42-2.05-2.48h-3.53v7.06h2.78c1.03-.02,1.78-.9,1.78-2.08v-.21h.21s0,5.61,0,5.61h-.21v-.21c0-1.17-.74-2.04-1.75-2.08h-2.81v6.83h2.76c2.1,0,3.46-1.51,4.11-3.92h.21l-.97,4.95Z"/>
    <path class="cls-1" d="m400.17,224.92v.24h-.39c-.7,0-1.27.65-1.3,1.45v12.54c0,1.83.24,3.1.24,3.1h-.19l-10.61-11.68v9.63c.02.81.59,1.46,1.3,1.46h.39v.24s-6.36,0-6.36,0v-.24h.39c.71,0,1.28-.66,1.3-1.47v-12.61c0-1.8-.24-3.03-.24-3.03h.21l10.59,11.68v-9.6c-.01-.81-.59-1.47-1.3-1.47h-.39v-.24s6.36,0,6.36,0Z"/>
    <path class="cls-1" d="m421.88,234.83l.2,4.18c-.94,1.8-2.73,3.25-5.9,3.25-5.16-.02-8.52-3.32-8.52-8.86s3.25-8.81,8.58-8.81c2.24,0,4.03.6,5.22,1.31l.04,4.17h-.17c-.77-3.19-2.57-4.46-4.88-4.46-3.33,0-5.37,2.97-5.37,7.74s1.97,7.8,5.09,7.89c3.23,0,4.87-1.63,5.52-6.4h.18Z"/>
    <path class="cls-1" d="m441.09,241.92h-10.87v-.24h.27c.73,0,1.33-.68,1.34-1.53v-13.54c-.05-.81-.63-1.45-1.34-1.45h-.27v-.24s8.05,0,8.05,0c.91,0,2.12-.25,2.51-.44v4.24h-.21v-.29c0-1.46-.79-2.42-2.05-2.48h-3.53v7.06h2.78c1.03-.02,1.78-.9,1.78-2.08v-.21h.21s0,5.61,0,5.61h-.21v-.21c0-1.17-.74-2.04-1.75-2.08h-2.81v6.83h2.76c2.1,0,3.46-1.51,4.11-3.92h.21l-.97,4.95Z"/>
    <path class="cls-1" d="m461.28,234.03h6.3l.18.81-.18.82h-6.3l-.18-.82.18-.81Z"/>
  </g>
</svg>