<?xml version="1.0" encoding="UTF-8"?>
<svg id="Layer_1" data-name="Layer 1" xmlns="http://www.w3.org/2000/svg" viewBox="0 0 574.57 261.15">
  <defs>
    <style>
      .cls-1 {
        fill: none;
        stroke: #27aae1;
        stroke-miterlimit: 10;
        stroke-width: 5px;
      }

      .cls-2 {
        fill: #231f20;
        stroke-width: 0px;
      }
    </style>
  </defs>
  <g>
    <g>
      <path class="cls-2" d="m23.44,199.17c-.85-.19-1.69-.56-2.54-1.13-.85-.56-1.17-1.36-.99-2.4.19-1.5,1.2-3.55,3.03-6.13,1.83-2.59,4.07-5.43,6.7-8.53,2.63-3.1,5.52-6.32,8.67-9.66,3.15-3.34,6.18-6.51,9.09-9.52,2.91-3.01,5.54-5.76,7.9-8.25,2.35-2.49,4.04-4.39,5.08-5.71-4.7.85-9.19,1.72-13.46,2.61-4.28.89-8.3,1.72-12.06,2.47,0,.75-.35,1.18-1.06,1.27-.71.09-1.29.14-1.76.14-1.6,0-2.94-.3-4.02-.92-1.08-.61-1.43-1.81-1.06-3.6,0-.19.07-.37.21-.56.14-.19.21-.38.21-.56,7.05-2.07,13.86-3.83,20.45-5.29,6.58-1.46,13.35-2.84,20.3-4.16,3.67-3.85,8.13-8.32,13.4-13.39,5.26-5.08,10.83-10.32,16.71-15.72,5.87-5.4,11.82-10.74,17.84-16,6.01-5.26,11.58-9.96,16.71-14.1,5.12-4.13,9.59-7.47,13.4-10.01s6.42-3.81,7.83-3.81c.94,0,1.71.28,2.33.85.61.56,1.06,1.27,1.34,2.12.28.85.47,1.74.56,2.68.09.94.09,1.79,0,2.54-.28,1.79-.99,4.07-2.12,6.84-1.13,2.77-2.52,5.83-4.16,9.17-1.65,3.34-3.43,6.79-5.36,10.36-1.93,3.57-3.83,7.1-5.71,10.57-1.88,3.48-3.67,6.77-5.36,9.87-1.69,3.1-3.1,5.78-4.23,8.04-.19.47-.4.94-.63,1.41-.24.47-.49.99-.78,1.55h1.55c2.26,0,4.16.35,5.71,1.06,1.55.71,2.23,2.47,2.04,5.29l-1.83,1.41c-1.6-.19-3.31-.28-5.15-.28h-5.57c-1.69,3.95-3.53,8.32-5.5,13.11-1.97,4.79-3.86,9.52-5.64,14.17-1.79,4.65-3.31,9-4.58,13.04-1.27,4.04-2.09,7.28-2.47,9.73v2.4c.56,0,1.13.28,1.69.85s.85,1.13.85,1.69c-.19,1.03-.8,1.93-1.83,2.68-1.04.75-2.07,1.13-3.1,1.13-2.45,0-3.97-.75-4.58-2.26-.61-1.5-.73-3.34-.35-5.5.56-4.61,1.48-9.21,2.75-13.82,1.27-4.61,2.7-9.07,4.3-13.4,1.6-4.32,3.24-8.48,4.94-12.48,1.69-3.99,3.29-7.68,4.79-11.07-7.05.47-14.43,1.22-22.14,2.26-7.71,1.04-15.42,2.21-23.12,3.53-.28.19-.54.42-.78.71-.24.28-.49.56-.78.85l-5.5,5.5c-2.35,2.35-4.93,4.96-7.75,7.83-2.82,2.87-5.73,5.9-8.74,9.09-3.01,3.2-5.83,6.23-8.46,9.09-2.63,2.87-4.89,5.47-6.77,7.83-1.88,2.35-3.1,4.18-3.67,5.5.09.66-.09,1.34-.56,2.04-.47.71-1.08,1.39-1.83,2.04-.75.66-1.53,1.24-2.33,1.76-.8.52-1.48.92-2.04,1.2Zm129.44-124.5c-12.97,9.31-25.43,19.18-37.37,29.61-11.94,10.43-23.45,21.34-34.54,32.71,13.16-1.78,26.51-3.19,40.04-4.23,2.26-5.26,4.75-10.29,7.47-15.09,2.72-4.79,5.54-9.54,8.46-14.24,2.91-4.7,5.73-9.42,8.46-14.17,2.72-4.75,5.22-9.61,7.47-14.59Z"/>
      <path class="cls-2" d="m145.82,161.8c0-3.95,1.17-8.08,3.53-12.41,2.35-4.32,5.31-8.29,8.88-11.91,3.57-3.62,7.52-6.58,11.84-8.88,4.32-2.3,8.46-3.45,12.41-3.45,2.82,0,4.77,1.01,5.85,3.03,1.08,2.02,1.62,4.16,1.62,6.42,0,2.63-1.22,5.24-3.67,7.83-2.45,2.59-5.41,4.86-8.88,6.84-3.48,1.97-7.1,3.57-10.86,4.79-3.76,1.22-6.96,1.83-9.59,1.83h-1.41c-.47,0-.89-.09-1.27-.28-.28.56-.56,1.25-.85,2.04-.28.8-.54,1.62-.78,2.47-.24.85-.42,1.65-.56,2.4-.14.75-.21,1.32-.21,1.69,0,3.1,1.64,4.65,4.93,4.65,2.73,0,5.99-.71,9.8-2.12s7.8-3.17,11.99-5.29c4.18-2.12,8.34-4.42,12.48-6.91,4.13-2.49,7.85-4.79,11.14-6.91,3.29-2.11,6.01-3.88,8.18-5.29,2.16-1.41,3.34-2.12,3.53-2.12,1.03,0,2.12.4,3.24,1.2,1.13.8,1.69,1.81,1.69,3.03,0,.66-1.15,1.88-3.45,3.67-2.3,1.79-5.29,3.81-8.95,6.06-3.67,2.26-7.73,4.61-12.2,7.05-4.47,2.45-8.91,4.68-13.32,6.7-4.42,2.02-8.53,3.69-12.34,5-3.81,1.32-6.84,1.97-9.09,1.97-1.5,0-3.08-.33-4.72-.99-1.65-.66-3.13-1.55-4.44-2.68-1.32-1.13-2.4-2.49-3.24-4.09-.85-1.6-1.27-3.38-1.27-5.36Zm11.99-12.41h.85c2.07,0,4.25-.45,6.56-1.34,2.3-.89,4.53-2,6.7-3.31,2.16-1.31,4.18-2.75,6.06-4.3,1.88-1.55,3.41-2.98,4.58-4.3,1.17-1.32,1.93-2.42,2.26-3.31.33-.89.02-1.34-.92-1.34-2.45,0-4.89.49-7.33,1.48-2.45.99-4.79,2.26-7.05,3.81-2.26,1.55-4.33,3.31-6.2,5.29-1.88,1.97-3.48,3.95-4.79,5.92l-.71,1.41Z"/>
      <path class="cls-2" d="m175.43,198.18c0-2.92,1.15-5.95,3.46-9.09,2.3-3.15,5.36-6.34,9.17-9.59,3.81-3.24,8.18-6.46,13.11-9.66,4.94-3.19,9.99-6.25,15.16-9.17-.56-1.13-1.18-2.26-1.83-3.38-.66-1.13-1.29-2.26-1.9-3.38-.61-1.13-1.13-2.3-1.55-3.52-.42-1.22-.63-2.49-.63-3.81,0-1.88.82-3.85,2.47-5.92,1.64-2.07,3.64-3.99,5.99-5.78,2.35-1.79,4.75-3.27,7.19-4.44,2.44-1.17,4.51-1.76,6.2-1.76,1.03,0,2.07.61,3.1,1.83,1.03,1.22,1.55,2.35,1.55,3.38,0,.56-.17,1.13-.49,1.69-.33.56-.75,1.13-1.27,1.69-.52.56-1.04,1.08-1.55,1.55-.52.47-.96.85-1.34,1.13-.38.38-.75.56-1.13.56-.66,0-1.15-.28-1.48-.85-.33-.56-.26-1.08.21-1.55l-.42-.99c-1.04.56-2.26,1.27-3.67,2.11-1.41.85-2.75,1.81-4.02,2.89-1.27,1.08-2.35,2.28-3.24,3.6-.89,1.32-1.34,2.68-1.34,4.09,0,1.04.38,2.28,1.13,3.74.75,1.46,1.6,3.03,2.54,4.72,3.57-1.97,7.1-3.88,10.58-5.71,3.48-1.83,6.74-3.5,9.8-5.01,3.05-1.5,5.85-2.89,8.39-4.16,2.54-1.27,4.65-2.33,6.35-3.17.56-.19.94-.28,1.13-.28.66,0,1.27.19,1.83.56.56.38,1.06.82,1.48,1.34.42.52.68,1.04.78,1.55.09.52,0,.87-.28,1.06-1.13,1.04-2.96,2.23-5.5,3.59-2.54,1.36-5.5,2.87-8.88,4.51-3.38,1.65-7.07,3.41-11.07,5.29-4,1.88-8.06,3.9-12.2,6.06.19.56.33,1.15.42,1.76.09.61.14,1.2.14,1.76,0,4.79-1.41,9.45-4.23,13.96-2.82,4.51-6.32,8.53-10.5,12.06-4.18,3.53-8.7,6.37-13.54,8.53-4.84,2.16-9.28,3.24-13.32,3.24-1.79,0-3.36-.71-4.72-2.12-1.36-1.41-2.04-3.06-2.04-4.93Zm6.35.28c2.73,0,6.16-.92,10.29-2.75,4.14-1.83,8.11-4.25,11.91-7.26,3.81-3.01,7.07-6.42,9.8-10.22,2.73-3.81,4.09-7.64,4.09-11.49-4.23,2.26-8.34,4.63-12.34,7.12-4,2.49-7.61,5.05-10.86,7.68-3.24,2.63-6.01,5.38-8.32,8.25-2.3,2.87-3.83,5.76-4.58,8.67Z"/>
      <path class="cls-2" d="m232.68,188.31c-.28-4.98.89-10.41,3.52-16.29,2.63-5.87,5.87-11.75,9.73-17.62,3.85-5.87,7.87-11.49,12.06-16.85,4.18-5.36,7.73-9.96,10.65-13.82l1.69-2.12h-17.48c-1.6,0-3.2.05-4.79.14-1.6.09-3.2.14-4.79.14-.47-.47-.94-1.06-1.41-1.76-.47-.71-.71-1.53-.71-2.47,0-1.13.37-2.07,1.13-2.82,2.16-.09,4.35-.14,6.56-.14h13.25c2.21,0,4.39-.05,6.56-.14,1.5-.19,2.96-.3,4.37-.35,1.41-.05,2.77-.12,4.09-.21,1.97-1.97,4.02-4.23,6.13-6.77,2.11-2.54,4.16-5.03,6.13-7.47,1.97-2.44,3.78-4.67,5.43-6.7,1.64-2.02,3.03-3.46,4.16-4.3h.71c.75,0,1.48.52,2.19,1.55.71,1.04,1.06,1.93,1.06,2.68.09.94-.42,2.3-1.55,4.09-1.13,1.79-2.49,3.69-4.09,5.71-1.6,2.02-3.27,4.02-5.01,5.99-1.74,1.97-3.27,3.62-4.58,4.94h1.97c1.5,0,3.05.07,4.65.21,1.6.14,3.05.42,4.37.85,1.31.42,2.4,1.04,3.24,1.83.85.8,1.27,1.86,1.27,3.17,0,.38-.05.89-.14,1.55-.09.66-.38.99-.85.99h-1.41c-.75-.47-2.11-.8-4.09-.99-1.97-.19-4.04-.28-6.2-.28-1.6,0-3.1.02-4.51.07-1.41.05-2.49.07-3.24.07h-1.41l-2.11,2.54c-1.79,1.79-4.02,4.3-6.7,7.54-2.68,3.24-5.5,6.86-8.46,10.86-2.96,4-5.9,8.23-8.81,12.69-2.91,4.47-5.55,8.86-7.9,13.18-2.35,4.32-4.23,8.39-5.64,12.2-1.41,3.81-2.07,7.07-1.97,9.8,0,.56.19,1.22.56,1.97.37.75.28,1.41-.28,1.97-.28.28-.61.42-.99.42-1.6,0-3.05-.59-4.37-1.76-1.32-1.18-1.97-2.61-1.97-4.3Z"/>
      <path class="cls-2" d="m302.62,187.61c-1.79,0-3.48-.61-5.08-1.83-1.6-1.22-2.4-2.73-2.4-4.51,0-1.5.49-3.46,1.48-5.85.99-2.4,2.23-5.05,3.74-7.97,1.5-2.91,3.19-5.94,5.08-9.09,1.88-3.15,3.74-6.18,5.57-9.09,1.83-2.91,3.5-5.59,5-8.04,1.5-2.44,2.68-4.42,3.53-5.92-.56.38-1.6,1.18-3.1,2.4-1.5,1.22-3.29,2.73-5.36,4.51-2.07,1.79-4.35,3.71-6.84,5.78-2.49,2.07-4.96,4.18-7.4,6.35-5.83,4.98-12.27,10.53-19.32,16.64-1.22,0-2.35-.4-3.38-1.2-1.04-.8-1.55-1.81-1.55-3.03,0-.47.68-1.97,2.04-4.51,1.36-2.54,3.17-5.73,5.43-9.59,2.26-3.85,4.87-8.2,7.83-13.04,2.96-4.84,6.04-9.77,9.24-14.8,3.19-5.03,6.37-10.01,9.52-14.95,3.15-4.93,6.08-9.45,8.81-13.54,2.72-4.09,5.1-7.59,7.12-10.5,2.02-2.91,3.45-4.84,4.3-5.78,1.32.19,2.42.73,3.31,1.62.89.89,1.34,2,1.34,3.31,0,.38-1.04,2.23-3.1,5.57-2.07,3.34-4.68,7.45-7.83,12.34-3.15,4.89-6.58,10.15-10.29,15.79-3.71,5.64-7.24,10.98-10.58,16-3.34,5.03-6.2,9.4-8.6,13.11-2.4,3.71-3.88,6.04-4.44,6.98.66-.75,1.83-1.9,3.53-3.46s3.64-3.33,5.85-5.36c2.21-2.02,4.56-4.09,7.05-6.2,2.49-2.12,4.89-4.04,7.19-5.78,2.3-1.74,4.37-3.17,6.2-4.3s3.17-1.69,4.02-1.69c1.78,0,3.29.71,4.51,2.11,1.22,1.41,1.83,2.92,1.83,4.51s-.73,3.88-2.19,6.84c-1.46,2.96-3.27,6.18-5.43,9.66-2.16,3.48-4.44,7.03-6.84,10.65-2.4,3.62-4.51,6.89-6.34,9.8-1.83,2.91-3.17,5.31-4.02,7.19-.85,1.88-.8,2.82.14,2.82,1.13,0,2.7-.66,4.72-1.97,2.02-1.32,4.09-2.84,6.2-4.58,2.12-1.74,4.09-3.43,5.92-5.08,1.83-1.64,3.17-2.8,4.02-3.45,1.13-.94,2.49-2.26,4.09-3.95,1.6-1.69,3.29-3.5,5.08-5.43,1.79-1.93,3.6-3.9,5.43-5.92,1.83-2.02,3.5-3.83,5.01-5.43,1.5-1.6,2.8-2.91,3.88-3.95,1.08-1.03,1.71-1.55,1.9-1.55,1.41,0,2.51.45,3.31,1.34.8.89,1.2,1.86,1.2,2.89-.38.94-1.65,2.66-3.81,5.15-2.16,2.49-4.82,5.34-7.97,8.53-3.15,3.2-6.61,6.53-10.36,10.01-3.76,3.48-7.43,6.65-11,9.52-3.57,2.87-6.89,5.24-9.94,7.12-3.06,1.88-5.48,2.82-7.26,2.82Z"/>
    </g>
    <g>
      <path class="cls-2" d="m377.06,196.07c-5.64,0-10.15-1.76-13.54-5.29s-4.94-8.25-4.65-14.17c.19-3.76,1.2-8.25,3.03-13.46s4.28-10.79,7.33-16.71c3.05-5.92,6.63-12.08,10.72-18.47,4.09-6.39,8.48-12.62,13.18-18.68,4.7-6.06,9.63-11.8,14.81-17.2,5.17-5.4,10.36-10.15,15.58-14.24s10.34-7.33,15.37-9.73c5.03-2.4,9.8-3.6,14.31-3.6,2.82,0,4.91.92,6.27,2.75,1.36,1.83,1.95,4.07,1.76,6.7,0,.85-.4,2.23-1.2,4.16-.8,1.93-1.81,4.11-3.03,6.56-1.22,2.45-2.59,4.98-4.09,7.61-1.5,2.63-2.99,5.08-4.44,7.33-1.46,2.26-2.77,4.23-3.95,5.92-1.18,1.69-2.04,2.82-2.61,3.38-.75-.38-1.65-1.01-2.68-1.9-1.04-.89-1.55-1.81-1.55-2.75,0-.09.47-.87,1.41-2.33.94-1.46,2.11-3.29,3.52-5.5,1.41-2.21,2.94-4.58,4.58-7.12,1.64-2.54,3.19-4.98,4.65-7.33,1.46-2.35,2.66-4.42,3.6-6.2.94-1.79,1.46-2.96,1.55-3.53-.38-.19-.66-.3-.85-.35-.19-.05-.47-.07-.85-.07-2.45,0-4.96.45-7.54,1.34-2.59.89-5.12,2.07-7.61,3.53-2.49,1.46-4.91,3.03-7.26,4.72-2.35,1.69-4.49,3.36-6.42,5.01-1.93,1.65-3.57,3.13-4.93,4.44-1.36,1.32-2.33,2.26-2.89,2.82-3.86,3.86-7.8,8.13-11.84,12.83-4.04,4.7-7.97,9.61-11.77,14.74-3.81,5.12-7.43,10.36-10.86,15.72-3.43,5.36-6.49,10.6-9.17,15.72-2.68,5.12-4.82,10.04-6.42,14.73-1.6,4.7-2.54,8.98-2.82,12.83-.19,3.48.37,5.97,1.69,7.47,1.31,1.5,4.04,2.26,8.18,2.26,4.42,0,8.81-.75,13.18-2.26,4.37-1.5,8.72-3.38,13.04-5.64,4.32-2.26,8.6-4.75,12.83-7.47,4.23-2.73,8.37-5.26,12.41-7.61.38.09.85.26,1.41.49.56.24,1.13.52,1.69.85.56.33,1.06.71,1.48,1.13.42.42.63.92.63,1.48s-.38,1.08-1.13,1.55c-.75.47-1.32.8-1.69.99-3.2,2.54-7.05,5.15-11.56,7.83-4.51,2.68-9.19,5.1-14.03,7.26-4.84,2.16-9.64,3.95-14.38,5.36-4.75,1.41-8.91,2.11-12.48,2.11Z"/>
      <path class="cls-2" d="m439.52,165.89c0-1.69.3-3.6.92-5.71.61-2.12,1.39-4.23,2.33-6.35.94-2.11,2.02-4.13,3.24-6.06,1.22-1.93,2.44-3.64,3.67-5.15,1.5-4.42,4.18-7.92,8.04-10.5,3.85-2.58,8.04-3.88,12.55-3.88,3.01,0,5.4.54,7.19,1.62,1.79,1.08,3.19,2.4,4.23,3.95,1.03,1.55,1.71,3.22,2.04,5.01.33,1.79.49,3.43.49,4.93,0,3.38-.66,6.77-1.97,10.15,3.1-1.03,6.16-2.19,9.17-3.46,3.01-1.27,5.83-2.51,8.46-3.74,2.63-1.22,4.96-2.37,6.98-3.45,2.02-1.08,3.64-1.95,4.87-2.61.19-.09.42-.14.7-.14.47,0,.94.19,1.41.56.47.38.87.8,1.2,1.27.33.47.51.94.56,1.41.05.47-.07.85-.35,1.13-1.32,1.32-3.29,2.75-5.92,4.3-2.63,1.55-5.62,3.08-8.95,4.58-3.34,1.5-6.91,2.92-10.72,4.23-3.81,1.32-7.59,2.4-11.35,3.24-3.29,4.7-7.36,8.55-12.2,11.56-4.84,3.01-9.66,4.51-14.45,4.51-4.33,0-7.43-1.18-9.31-3.52-1.88-2.35-2.82-4.98-2.82-7.9Zm10.29-10.86c-1.22,1.88-2.26,3.78-3.1,5.71-.85,1.93-1.27,3.88-1.27,5.85,0,1.5.35,2.61,1.06,3.31s2.09,1.06,4.16,1.06c3.19,0,6.32-.78,9.38-2.33,3.05-1.55,5.85-3.55,8.39-5.99-.47.09-.96.14-1.48.14h-1.48c-1.22,0-2.59-.07-4.09-.21-1.5-.14-2.98-.49-4.44-1.06-1.46-.56-2.82-1.36-4.09-2.4-1.27-1.03-2.28-2.4-3.03-4.09Zm9.02-12.27c0,.56-.4,1.39-1.2,2.47-.8,1.08-1.81,2.38-3.03,3.88,0,2.45.68,4.39,2.04,5.85,1.36,1.46,4.11,2.19,8.25,2.19,1.41,0,2.89-.09,4.44-.28,1.55-.19,3.12-.42,4.72-.71,1.6-2.44,2.87-4.86,3.81-7.26.94-2.4,1.41-4.67,1.41-6.84s-.61-4.06-1.83-5.71c-1.22-1.64-3.43-2.47-6.63-2.47-2.16,0-4.47.49-6.91,1.48-2.45.99-4.47,2.47-6.06,4.44.66,1.13.99,2.12.99,2.96Z"/>
      <path class="cls-2" d="m516.79,175.91c-1.6,0-2.89-.71-3.88-2.12-.99-1.41-1.48-2.82-1.48-4.23,0-.75.26-1.71.78-2.89.52-1.17,1.2-1.76,2.04-1.76,1.6,0,3.17.47,4.72,1.41,1.55.94,2.33,2.35,2.33,4.23,0,1.32-.45,2.54-1.34,3.67-.89,1.13-1.95,1.69-3.17,1.69Z"/>
    </g>
  </g>
  <g>
    <path class="cls-2" d="m467.13,39.38c-.18.43-.41.92-.66,1.48-.05.09-.13.14-.22.14l-10.42.54c-.07,0-.11-.04-.12-.13l-.02-.34c0-.07.02-.11.08-.11l1.63-.08c.15,0,.22-.09.21-.24,0-.07-.07-1.2-.2-3.39s-.19-3.32-.2-3.39-.05-.83-.13-2.27c-.08-1.44-.12-2.21-.13-2.3-.08-1.49-.26-2.23-.54-2.21l-1.33.07c-.07,0-.11-.03-.12-.11l-.02-.36c0-.07.04-.11.13-.12l9.85-.51c.13,0,.31-.02.53-.05.22-.03.33-.04.32-.04.09,0,.13.03.12.1-.08.41-.19.88-.31,1.42-.05.17-.1.26-.16.26l-.16-.16c-.29-.25-.72-.42-1.32-.5-.83-.1-2.58-.1-5.24,0-.09,0-.15.05-.17.14s.05,1.91.23,5.46c0,.15.07.22.2.21l5.38-.28c.1,0,.16-.06.17-.17.01-.11.03-.35.05-.71.02-.36.04-.56.04-.6,0-.14.03-.21.12-.22h.16c.09-.01.14.05.14.17,0,.03,0,.34,0,.92,0,.59,0,.93.01,1.04,0,.11.03.5.08,1.15.05.66.07,1.01.08,1.06,0,.16-.03.25-.11.25h-.18c-.07.01-.12-.04-.14-.14-.05-.47-.12-1.03-.2-1.67-.03-.15-.1-.21-.22-.21-.07,0-.97.04-2.72.1-1.75.06-2.64.09-2.67.09-.09,0-.14.07-.13.21l.21,4.15c.09,1.76.33,2.63.71,2.61,3.44-.18,5.71-.56,6.81-1.15.26-.17.42-.27.48-.3.07,0,.1.04.07.14Z"/>
    <path class="cls-2" d="m483.67,39.14c-.22,1.2-.79,2.11-1.7,2.75-.97.66-2.23.84-3.78.55-1.82-.34-3.05-.91-3.67-1.71-.07-.1-.09-.25-.05-.47,0-.05.08-.47.22-1.27.14-.8.22-1.22.23-1.28.02-.09.08-.13.18-.11l.44.08c.09.02.13.07.13.17,0,.1-.02.33-.06.7-.1.79.07,1.48.51,2.07.21.28.53.54.98.79.44.25.85.4,1.22.47,1.45.27,2.5-.03,3.16-.9.3-.41.51-.94.63-1.61.11-.59,0-1.14-.33-1.64-.37-.56-1.1-1.16-2.17-1.78-1.22-.7-2.05-1.34-2.52-1.91-.62-.75-.8-1.78-.56-3.09.23-1.23.92-2.17,2.07-2.83.88-.51,1.94-.65,3.17-.42.82.15,1.55.43,2.2.83.42.26.71.5.89.73.09.09.13.2.12.33-.02.56-.12,1.31-.29,2.23-.03.15-.06.22-.11.22l-.52-.1c-.05,0-.08-.06-.08-.15,0-.22,0-.5,0-.85-.02-.52-.2-.93-.56-1.22-.65-.55-1.46-.92-2.41-1.1-.86-.16-1.53-.09-2.01.2-.5.3-.85.94-1.03,1.91-.11.59,0,1.15.32,1.66.16.25.49.55,1.01.9.43.28.87.55,1.3.84.86.58,1.36.93,1.51,1.05.49.4.88.84,1.18,1.33.44.73.56,1.62.37,2.66Z"/>
    <path class="cls-2" d="m507.64,36.96c-.25.39-.58.83-.99,1.32-.07.08-.13.11-.18.08-.07-.03-.11-.11-.12-.25-.01-.37-.19-.69-.53-.95-.59-.45-1.75-1.07-3.46-1.87-.11-.05-.18-.03-.23.05-.05.08-.79,1.63-2.21,4.64-1.38,2.88-2.12,4.43-2.21,4.63-.88,1.9-1.15,2.93-.83,3.08l1.72.79s.06.06.03.11l-.16.35c-.03.07-.07.09-.12.07l-5.51-2.54c-.07-.03-.09-.08-.06-.15l.15-.33c.03-.07.08-.08.16-.05l1.61.74c.13.06.23,0,.31-.17.62-1.41.96-2.19,1.02-2.32.05-.11.59-1.23,1.61-3.35,1.02-2.12,1.55-3.23,1.6-3.32.93-2.01,1.28-3.07,1.04-3.17-1.72-.8-2.98-1.26-3.78-1.39-.58-.1-.99-.07-1.25.09-.13.09-.22.12-.28.09-.09-.04-.12-.09-.09-.14.03-.07.1-.15.19-.23.5-.59.88-1.02,1.14-1.29.07-.08.16-.07.27,0,.13.08.8.44,2.01,1.07,1.41.73,2.56,1.3,3.45,1.71,2.86,1.32,4.48,2.06,4.87,2.23.18.08.36.14.53.19.17.05.25.07.24.07.09.04.11.11.06.22Z"/>
    <path class="cls-2" d="m509.4,54.83c-.15.22-.37.34-.64.37-.27.03-.52-.03-.74-.18-.55-.39-.64-.84-.28-1.36.41-.58.94-.63,1.6-.16.44.31.46.76.05,1.33Z"/>
    <path class="cls-2" d="m534.08,83.75s-.16.04-.38.06c-.31.03-.66.05-1.06.08-.1,0-.17-.04-.2-.1l-3.94-7.33c-.06-.11.01-.22.21-.33.13-.07.33-.03.6.12,2.01,1.08,3.93,1.77,5.74,2.07,1.27.2,2.32.25,3.14.14.77-.1,1.57-.37,2.39-.81.89-.48,1.46-1.07,1.71-1.77.3-.81.17-1.76-.41-2.84-.69-1.28-1.55-2.01-2.58-2.18-.09-.02-.14-.06-.15-.14,0-.14.01-.22.07-.25.2-.11.57-.08,1.12.08.48.14.9.32,1.24.54.84.52,1.53,1.28,2.06,2.27.55,1.02.68,2.01.39,2.97-.28.92-.95,1.66-2.01,2.23-.71.38-1.51.62-2.38.72-1.67.18-3.2.09-4.6-.27-1.56-.4-2.97-.88-4.23-1.47-.08-.04-.14-.05-.18-.03-.07.04-.06.13.02.29l1.28,2.39c.77,1.43,1.42,2.46,1.96,3.1.13.15.21.25.23.29.05.09.04.16-.04.2Z"/>
    <path class="cls-2" d="m545.28,98.48c-.95.26-1.69.42-2.21.48-.6.06-1.33.04-2.2-.08-1.33-.17-2.35-.56-3.03-1.2-.4-.37-.65-.63-.76-.79-.15-.22-.29-.57-.43-1.05-.19-.69-.26-1.26-.22-1.69.01-.11.15-.54.42-1.3.21-.58.76-1.25,1.67-2,.91-.75,2.14-1.34,3.71-1.78,2.25-.62,4.22-.73,5.91-.3.79.19,1.44.58,1.96,1.16.52.58.88,1.21,1.06,1.87.34,1.22.03,2.49-.93,3.83-.88,1.21-2.53,2.15-4.96,2.83Zm-1.5-.99c1.76-.49,3.14-1.08,4.13-1.77,1.07-.76,1.77-1.42,2.09-2.01.38-.7.44-1.55.16-2.55-.18-.64-.54-1.08-1.09-1.32-.62-.27-1.38-.36-2.29-.28-.85.08-1.66.23-2.43.45-.6.17-1.36.43-2.27.8-.97.4-1.65.73-2.06.98-1.65,1.05-2.54,1.93-2.66,2.62-.12.69-.1,1.3.05,1.84.19.7.58,1.19,1.14,1.48,1.02.53,2.77.46,5.22-.23Z"/>
    <path class="cls-2" d="m541.08,116.7s-.16-.04-.37-.12c-.29-.11-.62-.24-.99-.38-.09-.05-.14-.11-.14-.18l-.4-8.31c0-.12.11-.19.33-.21.15,0,.31.11.49.36,1.35,1.84,2.78,3.29,4.29,4.34,1.06.73,1.98,1.22,2.77,1.48.74.24,1.58.34,2.51.3,1.01-.05,1.78-.34,2.31-.86.63-.6.91-1.52.85-2.75-.07-1.45-.53-2.48-1.39-3.08-.08-.06-.1-.12-.08-.19.05-.13.11-.19.17-.2.23-.01.55.17.98.55.38.33.67.67.89,1.02.53.83.83,1.81.88,2.94.06,1.16-.25,2.11-.92,2.85-.64.71-1.57,1.09-2.77,1.15-.81.04-1.63-.09-2.46-.38-1.58-.56-2.92-1.3-4.03-2.22-1.24-1.03-2.3-2.08-3.19-3.15-.06-.07-.1-.1-.15-.1-.08,0-.12.09-.11.27l.13,2.71c.08,1.62.22,2.84.44,3.64.05.2.08.32.08.36,0,.1-.04.16-.12.16Z"/>
    <path class="cls-2" d="m551.98,135.17c-.14-.03-.37-.15-.66-.37-.3-.22-.51-.44-.65-.65-.1-.14-.13-.27-.11-.39.02-.27.05-.5.09-.71.18-1.02.48-2.04.91-3.04.29-.68.52-1.13.69-1.36.05-.1.04-.17-.03-.23-.19-.15-1.12-.55-2.79-1.18-.11-.04-.18-.06-.22-.05-.05,0-.07.06-.07.15-.03.79-.09,1.41-.17,1.87-.15.85-.45,1.58-.9,2.19-.39.55-.81.99-1.26,1.3-1.1.77-2.42,1.02-3.98.75-1.38-.24-2.49-.93-3.35-2.08-.34-.47-.63-1.07-.87-1.79-.27-.82-.3-1.81-.09-2.99.21-1.2.62-2.1,1.23-2.72.14-.15.26-.21.34-.2.22.04.33.12.3.24l-.22.28c-.39.42-.69,1.19-.89,2.32-.24,1.38-.01,2.57.68,3.57.24.33.62.67,1.15,1.02.51.34,1.11.56,1.8.69,1.25.22,2.38-.1,3.4-.96.38-.32.69-.7.95-1.14.35-.6.59-1.25.71-1.96.01-.07.04-.27.08-.59.04-.32.07-.51.07-.56.04-.2.15-.29.34-.25.22.04,1.81.67,4.76,1.89.18.08.24.23.17.47-.61,2.24-1.03,4.02-1.26,5.34-.06.33-.08.57-.06.73.03.26.05.36.06.31-.02.09-.07.12-.18.1Z"/>
  </g>
  <g>
    <path class="cls-2" d="m119.4,239.73h6.3l.13.47-.13.47h-6.3l-.13-.47.13-.47Z"/>
    <path class="cls-2" d="m152.11,240.13c.84.78,1.05,1.71,1.05,2.56,0,2.32-1.52,3.93-3.93,3.93-1.03,0-2.73-.29-3.55-1.15-.16-.65-.08-1.98.24-2.93h.18c-.21,2.16,1.16,3.55,3.03,3.44,1.53-.08,2.81-1.13,2.81-2.81,0-.82-.3-1.47-.82-1.96l-4.02-3.74c-.85-.78-1.14-1.79-1.14-2.6,0-1.77,1.3-3.55,3.69-3.55.55,0,1.24.09,1.8.22h.83v2.58h-.2c0-1.34-1.05-2.16-2.36-2.16-1.55,0-2.58,1.13-2.58,2.41,0,.55.18,1.32.84,1.94l4.13,3.82Z"/>
    <path class="cls-2" d="m170.71,231.6c.91,0,2.13-.22,2.53-.38v2.64h-.21v-.38c0-.67-.53-1.22-1.2-1.25h-3.98v12.58c.02.72.62,1.3,1.34,1.3h.27v.21s-4.59,0-4.59,0v-.21h.27c.72,0,1.31-.57,1.34-1.29v-12.59h-3.98c-.67.03-1.2.58-1.2,1.25v.37h-.21s0-2.64,0-2.64c.39.17,1.62.38,2.53.38h7.09Z"/>
    <path class="cls-2" d="m194.05,231.62v.21h-.29c-.88,0-1.66.58-2.11,1.22l-4.15,6.71v5.03c.01.73.61,1.32,1.34,1.32h.27v.21s-4.59,0-4.59,0v-.21h.27c.73,0,1.32-.58,1.34-1.31v-5.06l-4-6.68c-.41-.64-1.23-1.23-2.11-1.23h-.29v-.21h5.16v.21h-.26c-.62,0-1.04.71-.74,1.3l3.15,5.88,3.35-5.88v-.02c.34-.59-.17-1.28-.74-1.28h-.26v-.21h4.66Z"/>
    <path class="cls-2" d="m211.31,242.93l-1.22,3.39h-8.7v-.21h.27c.74,0,1.33-.59,1.34-1.32v-11.64c-.01-.73-.61-1.32-1.34-1.32h-.27v-.21s4.59,0,4.59,0v.21h-.27c-.74,0-1.33.59-1.35,1.32v12.52h3.01c2.22,0,3.08-1.15,3.73-2.75h.21Z"/>
    <path class="cls-2" d="m227.88,246.32h-8.7v-.21h.27c.73,0,1.33-.59,1.34-1.32v-11.76c-.07-.68-.64-1.2-1.34-1.2h-.27v-.21s6.13,0,6.13,0c.91,0,2.11-.22,2.5-.38v2.65h-.21v-.38c0-.67-.52-1.21-1.18-1.25h-4.28v6.49h3.55c.56,0,1.02-.47,1.02-1.03v-.31h.21s0,3.32,0,3.32h-.21v-.31c0-.56-.44-1.01-.99-1.03h-3.57v6.29h3.01c2.23,0,3.08-1.15,3.73-2.75h.21l-1.22,3.39Z"/>
    <path class="cls-2" d="m253.73,246.32h-4.59v-.21h.27c.74,0,1.33-.59,1.35-1.32v-11.65c-.02-.73-.61-1.31-1.34-1.31h-.27v-.21s4.59,0,4.59,0v.21h-.27c-.73,0-1.32.58-1.34,1.31v11.65c.01.73.61,1.32,1.35,1.32h.27v.21Z"/>
    <path class="cls-2" d="m278,231.62v.21h-.39c-.7,0-1.27.56-1.3,1.25v10.85c0,1.35.19,2.68.19,2.68h-.19l-11.45-12.21v10.46c.02.7.59,1.26,1.3,1.26h.39v.21s-4.32,0-4.32,0v-.21h.39c.71,0,1.28-.57,1.3-1.27v-10.91c0-1.43-.19-2.62-.19-2.62h.21l11.43,12.21v-10.41c-.01-.71-.59-1.27-1.3-1.27h-.39v-.21s4.32,0,4.32,0Z"/>
    <path class="cls-2" d="m306.75,246.32h-8.71v-.21h.27c.73,0,1.33-.59,1.34-1.32v-11.76c-.07-.68-.64-1.2-1.34-1.2h-.27v-.21s6.13,0,6.13,0c.91,0,2.11-.22,2.5-.38v2.65h-.21v-.38c0-.67-.52-1.21-1.18-1.25h-4.28v6.49h3.55c.56,0,1.02-.47,1.02-1.03v-.31h.21s0,3.32,0,3.32h-.21v-.31c0-.56-.44-1.01-.99-1.03h-3.57v6.29h3.01c2.23,0,3.08-1.15,3.73-2.75h.21l-1.22,3.39Z"/>
    <path class="cls-2" d="m322.93,240.13c.84.78,1.05,1.71,1.05,2.56,0,2.32-1.52,3.93-3.93,3.93-1.03,0-2.73-.29-3.55-1.15-.16-.65-.08-1.98.24-2.93h.18c-.21,2.16,1.16,3.55,3.03,3.44,1.53-.08,2.81-1.13,2.81-2.81,0-.82-.3-1.47-.82-1.96l-4.02-3.74c-.85-.78-1.14-1.79-1.14-2.6,0-1.77,1.3-3.55,3.69-3.55.55,0,1.24.09,1.8.22h.83v2.58h-.2c0-1.34-1.05-2.16-2.36-2.16-1.55,0-2.58,1.13-2.58,2.41,0,.55.18,1.32.84,1.94l4.13,3.82Z"/>
    <path class="cls-2" d="m339.2,240.13c.84.78,1.05,1.71,1.05,2.56,0,2.32-1.52,3.93-3.93,3.93-1.03,0-2.73-.29-3.55-1.15-.16-.65-.08-1.98.24-2.93h.18c-.21,2.16,1.16,3.55,3.03,3.44,1.53-.08,2.81-1.13,2.81-2.81,0-.82-.3-1.47-.82-1.96l-4.02-3.74c-.85-.78-1.14-1.79-1.14-2.6,0-1.77,1.3-3.55,3.69-3.55.55,0,1.24.09,1.8.22h.83v2.58h-.2c0-1.34-1.05-2.16-2.36-2.16-1.55,0-2.58,1.13-2.58,2.41,0,.55.18,1.32.84,1.94l4.13,3.82Z"/>
    <path class="cls-2" d="m357.72,246.32h-8.7v-.21h.27c.73,0,1.33-.59,1.34-1.32v-11.76c-.07-.68-.64-1.2-1.34-1.2h-.27v-.21s6.13,0,6.13,0c.91,0,2.11-.22,2.5-.38v2.65h-.21v-.38c0-.67-.52-1.21-1.18-1.25h-4.28v6.49h3.55c.56,0,1.02-.47,1.02-1.03v-.31h.21s0,3.32,0,3.32h-.21v-.31c0-.56-.44-1.01-.99-1.03h-3.57v6.29h3.01c2.23,0,3.08-1.15,3.73-2.75h.21l-1.22,3.39Z"/>
    <path class="cls-2" d="m382.68,231.62v.21h-.39c-.7,0-1.27.56-1.3,1.25v10.85c0,1.35.19,2.68.19,2.68h-.19l-11.45-12.21v10.46c.02.7.59,1.26,1.3,1.26h.39v.21s-4.32,0-4.32,0v-.21h.39c.71,0,1.28-.57,1.3-1.27v-10.91c0-1.43-.19-2.62-.19-2.62h.21l11.43,12.21v-10.41c-.01-.71-.59-1.27-1.3-1.27h-.39v-.21s4.32,0,4.32,0Z"/>
    <path class="cls-2" d="m404.42,240.19l-.26,3.3c-1.11,1.81-2.98,3.13-5.9,3.13-4.39-.02-7.5-3.02-7.5-7.66s3-7.62,7.62-7.62c2.06,0,3.74.61,4.97,1.42l.42,2.96h-.17c-.64-2.45-2.7-3.75-5.22-3.75-3.69,0-6.04,2.79-6.04,6.97s2.39,6.97,5.92,7.06c2.98,0,5.5-1.49,5.98-5.79h.17Z"/>
    <path class="cls-2" d="m421.73,246.32h-8.7v-.21h.27c.73,0,1.33-.59,1.34-1.32v-11.76c-.07-.68-.64-1.2-1.34-1.2h-.27v-.21s6.13,0,6.13,0c.91,0,2.11-.22,2.5-.38v2.65h-.21v-.38c0-.67-.52-1.21-1.18-1.25h-4.28v6.49h3.55c.56,0,1.02-.47,1.02-1.03v-.31h.21s0,3.32,0,3.32h-.21v-.31c0-.56-.44-1.01-.99-1.03h-3.57v6.29h3.01c2.23,0,3.08-1.15,3.73-2.75h.21l-1.22,3.39Z"/>
    <path class="cls-2" d="m442.57,239.73h6.3l.13.47-.13.47h-6.3l-.13-.47.13-.47Z"/>
  </g>
  <rect class="cls-1" x="-875.09" y="-108.6" width="2240.54" height="1142.24"/>
</svg>